<svg xmlns="http://www.w3.org/2000/svg" xml:space="preserve" style="fill-rule:evenodd;clip-rule:evenodd;stroke-linejoin:round;stroke-miterlimit:2" viewBox="0 0 790 143"><path d="M0 0h789.241v142.935H0z" style="fill:none"/><path d="M177.64 108.643v-.564h7.019v.564h-.748c-.778 0-1.377.337-1.796 1.016-.203.316-.308 1.041-.308 2.186v8.344c0 2.066-.195 3.667-.589 4.801-.395 1.14-1.173 2.118-2.326 2.932-1.156.813-2.727 1.222-4.714 1.222-2.164 0-3.805-.388-4.923-1.17-1.122-.778-1.916-1.824-2.384-3.139-.31-.902-.47-2.591-.47-5.071v-8.044c0-1.264-.164-2.092-.503-2.486-.334-.393-.878-.591-1.626-.591h-.748v-.564h8.565v.564h-.758c-.819 0-1.407.265-1.757.803-.244.362-.364 1.124-.364 2.274v8.971c0 .797.069 1.715.21 2.745.144 1.031.398 1.839.768 2.413.368.575.902 1.053 1.601 1.425.7.378 1.551.564 2.565.564 1.296 0 2.454-.295 3.476-.88 1.023-.585 1.726-1.336 2.101-2.252.375-.918.563-2.467.563-4.652v-8.334c0-1.285-.139-2.087-.41-2.409-.383-.445-.948-.668-1.694-.668h-.75Zm13.674 8.65c1.565-1.963 3.063-2.947 4.483-2.947.735 0 1.364.192 1.888.57.527.378.946 1.005 1.256 1.875.214.606.319 1.538.319 2.791v5.936c0 .876.071 1.477.21 1.788.106.254.28.45.519.595.236.14.678.213 1.321.213v.543h-6.623v-.543h.278c.624 0 1.063-.104 1.307-.302.25-.196.424-.486.519-.87.041-.15.061-.626.061-1.424v-5.692c0-1.264-.161-2.18-.475-2.756-.32-.569-.853-.855-1.6-.855-1.158 0-2.315.659-3.463 1.974v7.329c0 .938.051 1.518.159 1.74.136.296.326.513.565.648.239.135.723.208 1.45.208v.543h-6.618v-.543h.295c.678 0 1.141-.182 1.38-.539.236-.363.355-1.047.355-2.057v-5.164c0-1.668-.036-2.682-.109-3.045-.071-.368-.185-.616-.336-.746-.149-.129-.354-.197-.608-.197-.268 0-.599.078-.977.228l-.219-.549 4.034-1.699h.629v2.947Zm15.963-10.214c.409 0 .758.151 1.048.446.285.3.429.663.429 1.087 0 .425-.144.787-.429 1.093-.29.3-.639.456-1.048.456a1.43 1.43 0 0 1-1.053-.456 1.534 1.534 0 0 1-.439-1.093c0-.424.146-.787.434-1.087a1.414 1.414 0 0 1 1.058-.446Zm1.212 7.267v11.172c0 .871.06 1.445.185 1.736.119.289.299.502.538.647.241.14.68.213 1.312.213v.543h-6.504v-.543c.654 0 1.092-.068 1.312-.202.224-.13.404-.348.534-.654.134-.3.199-.88.199-1.74v-5.36c0-1.508-.046-2.482-.131-2.927-.068-.326-.178-.549-.324-.673-.144-.13-.344-.192-.598-.192-.275 0-.604.078-.992.228l-.204-.549 4.029-1.699h.644Zm4.511.409h6.299v.565h-.414c-.379 0-.668.093-.868.285-.198.197-.3.45-.3.777 0 .352.105.771.31 1.258l3.112 7.676 3.129-7.966c.225-.564.334-.994.334-1.29a.54.54 0 0 0-.114-.347.856.856 0 0 0-.41-.311c-.17-.056-.504-.082-1.013-.082v-.565h4.37v.565c-.504.041-.858.145-1.053.315-.339.307-.643.814-.917 1.518l-4.75 11.929h-.597l-4.78-11.732c-.215-.544-.419-.938-.612-1.175a2.472 2.472 0 0 0-.75-.597c-.164-.092-.493-.18-.976-.258v-.565Zm19.4 5.237c-.012 2.066.468 3.683 1.446 4.858.972 1.171 2.12 1.756 3.432 1.756.877 0 1.64-.249 2.29-.752.649-.496 1.188-1.356 1.626-2.568l.454.3c-.205 1.389-.799 2.652-1.782 3.786-.987 1.141-2.218 1.71-3.695 1.71-1.613 0-2.989-.647-4.131-1.948-1.148-1.3-1.716-3.051-1.716-5.247 0-2.377.584-4.232 1.761-5.557 1.171-1.332 2.643-2 4.42-2 1.501 0 2.733.513 3.695 1.544.963 1.025 1.448 2.399 1.448 4.118H232.4Zm0-.881h6.196c-.051-.89-.151-1.517-.311-1.88a2.96 2.96 0 0 0-1.088-1.336c-.483-.321-.987-.487-1.511-.487-.807 0-1.531.326-2.169.978-.639.653-1.014 1.565-1.117 2.725Zm16.444-4.765v3.128c1.119-2.087 2.271-3.128 3.449-3.128.534 0 .977.171 1.331.508.349.341.524.735.524 1.175 0 .399-.125.731-.378 1.005-.256.275-.555.41-.909.41-.339 0-.724-.176-1.146-.524-.424-.347-.739-.523-.943-.523-.176 0-.366.099-.57.301-.439.414-.893 1.098-1.358 2.05v6.661c0 .767.092 1.352.277 1.747.129.274.354.502.673.682.324.182.783.276 1.387.276v.543h-6.854v-.543c.683 0 1.192-.115 1.521-.337.244-.161.414-.42.514-.772.044-.176.069-.663.069-1.476v-5.386c0-1.617-.03-2.58-.095-2.891-.059-.306-.179-.534-.349-.673a.972.972 0 0 0-.639-.213c-.299 0-.638.078-1.021.228l-.146-.549 4.051-1.699h.612Zm16.199 0v4.734h-.483c-.37-1.486-.843-2.496-1.423-3.035-.583-.533-1.321-.802-2.213-.802-.685 0-1.233.186-1.653.563-.419.374-.628.788-.628 1.244 0 .565.154 1.051.465 1.455.303.414.917.855 1.845 1.321l2.13 1.077c1.98 1 2.969 2.321 2.969 3.963 0 1.264-.46 2.279-1.382 3.056-.919.772-1.952 1.16-3.09 1.16-.822 0-1.754-.15-2.808-.456-.318-.098-.583-.15-.788-.15-.224 0-.399.129-.529.394h-.479v-4.963h.479c.276 1.415.8 2.482 1.567 3.201.768.72 1.631 1.078 2.584 1.078.673 0 1.223-.202 1.646-.611a1.99 1.99 0 0 0 .634-1.482c0-.699-.235-1.284-.709-1.762-.469-.475-1.41-1.077-2.827-1.806-1.413-.726-2.336-1.383-2.775-1.968-.439-.581-.658-1.306-.658-2.186 0-1.146.38-2.103 1.133-2.869.753-.767 1.731-1.156 2.928-1.156.528 0 1.167.12 1.915.352.5.151.829.228.993.228a.57.57 0 0 0 .37-.108c.083-.073.188-.228.304-.472h.483Zm7.897-7.267c.41 0 .759.151 1.047.446.285.3.43.663.43 1.087 0 .425-.145.787-.43 1.093-.288.3-.637.456-1.047.456-.409 0-.758-.156-1.052-.456a1.534 1.534 0 0 1-.439-1.093c0-.424.144-.787.434-1.087a1.412 1.412 0 0 1 1.057-.446Zm1.212 7.267v11.172c0 .871.061 1.445.185 1.736.12.289.3.502.539.647.239.14.678.213 1.311.213v.543h-6.503v-.543c.651 0 1.09-.068 1.311-.202.225-.13.403-.348.532-.654.136-.3.2-.88.2-1.74v-5.36c0-1.508-.044-2.482-.129-2.927-.071-.326-.179-.549-.324-.673-.144-.13-.344-.192-.598-.192-.275 0-.604.078-.992.228l-.205-.549 4.03-1.699h.643Zm9.085-4.154v4.563h3.127v1.062h-3.127v9.018c0 .901.124 1.507.373 1.817.245.317.565.472.953.472.324 0 .634-.104.938-.311.3-.207.534-.513.704-.917h.568c-.345.989-.823 1.736-1.447 2.238-.624.502-1.266.751-1.929.751-.45 0-.889-.129-1.318-.389a2.298 2.298 0 0 1-.948-1.108c-.203-.476-.308-1.217-.308-2.222v-9.349h-2.117v-.497c.535-.223 1.082-.601 1.64-1.13a8.883 8.883 0 0 0 1.499-1.89c.224-.383.538-1.088.938-2.108h.454Zm5.162 4.563h6.24v.565h-.304c-.437 0-.768.099-.987.295a.944.944 0 0 0-.33.736c0 .393.161.942.485 1.636L296.76 125l2.998-7.676c.164-.419.244-.828.244-1.233 0-.181-.034-.316-.1-.409a.806.806 0 0 0-.363-.263c-.169-.068-.459-.099-.878-.099v-.565h4.355v.565c-.36.041-.64.119-.833.243-.195.119-.409.347-.643.684-.091.139-.256.528-.5 1.165l-5.448 13.871c-.528 1.347-1.216 2.362-2.069 3.051-.853.689-1.67 1.031-2.465 1.031-.574 0-1.048-.171-1.416-.518-.37-.342-.555-.736-.555-1.182 0-.424.136-.766.4-1.025.27-.259.638-.388 1.106-.388.321 0 .76.114 1.314.336.389.151.633.228.732.228.289 0 .609-.161.959-.471.344-.316.693-.922 1.041-1.823l.953-2.408-4.807-10.489a8.65 8.65 0 0 0-.704-1.166c-.244-.357-.444-.595-.599-.714-.225-.161-.583-.306-1.083-.425v-.565Zm29.757-.409c2.025 0 3.651.803 4.883 2.398 1.043 1.368 1.562 2.937 1.562 4.703 0 1.248-.288 2.507-.863 3.781-.573 1.274-1.367 2.238-2.374 2.886-1.009.647-2.131.968-3.367.968-2.02 0-3.622-.834-4.809-2.502a7.969 7.969 0 0 1-1.508-4.734c0-1.279.305-2.543.914-3.801.609-1.259 1.411-2.192 2.405-2.793.992-.605 2.045-.906 3.157-.906Zm-.454.989c-.514 0-1.033.156-1.557.477-.517.321-.943.876-1.262 1.678-.324.798-.483 1.823-.483 3.077 0 2.025.388 3.77 1.162 5.236.773 1.466 1.797 2.202 3.062 2.202.943 0 1.723-.404 2.34-1.213.614-.813.919-2.201.919-4.174 0-2.471-.51-4.413-1.536-5.827-.69-.974-1.572-1.456-2.645-1.456Zm15.598.513v9.137c0 1.294.14 2.113.41 2.46.363.445.843.669 1.446.669h1.218v.543h-7.997v-.543h.599c.388 0 .747-.104 1.068-.306a1.57 1.57 0 0 0 .663-.819c.124-.346.183-1.015.183-2.004v-9.137h-2.602v-1.093h2.602v-.906c0-1.388.216-2.564.645-3.522a5.39 5.39 0 0 1 1.965-2.331c.883-.591 1.87-.886 2.974-.886 1.021 0 1.966.342 2.823 1.031.564.456.843.968.843 1.534 0 .304-.125.589-.378.854-.256.269-.524.404-.819.404-.224 0-.46-.083-.709-.248-.249-.167-.554-.529-.912-1.078-.359-.555-.694-.922-.992-1.119a1.848 1.848 0 0 0-1.009-.285c-.449 0-.829.125-1.141.373-.31.243-.536.632-.675 1.149-.134.524-.205 1.866-.205 4.031v.999h3.452v1.093H333.3Zm25.009-8.235v7.116h-.539c-.179-1.368-.495-2.455-.943-3.263a4.954 4.954 0 0 0-1.941-1.927c-.838-.476-1.701-.714-2.598-.714-1.014 0-1.852.32-2.515.963s-.993 1.373-.993 2.191c0 .626.21 1.202.629 1.715.604.761 2.039 1.771 4.31 3.034 1.85 1.032 3.118 1.824 3.791 2.378a5.745 5.745 0 0 1 1.567 1.947c.363.752.548 1.534.548 2.352 0 1.559-.583 2.9-1.745 4.03-1.168 1.129-2.664 1.694-4.495 1.694a9.018 9.018 0 0 1-1.626-.14c-.3-.046-.928-.233-1.877-.549-.948-.322-1.55-.482-1.806-.482a.762.762 0 0 0-.578.228c-.139.15-.244.465-.314.943h-.539v-7.055h.539c.255 1.476.598 2.579 1.028 3.315.428.73 1.081 1.341 1.965 1.828a5.94 5.94 0 0 0 2.898.725c1.217 0 2.18-.331 2.889-1 .704-.668 1.058-1.455 1.058-2.366 0-.508-.135-1.016-.4-1.533-.268-.518-.688-.995-1.253-1.44-.378-.306-1.416-.949-3.112-1.938-1.695-.984-2.899-1.771-3.617-2.356-.718-.591-1.256-1.238-1.631-1.943a4.989 4.989 0 0 1-.554-2.34c0-1.477.544-2.745 1.636-3.813 1.094-1.067 2.481-1.6 4.166-1.6 1.053 0 2.171.264 3.347.802.543.254.933.378 1.152.378.256 0 .465-.077.624-.232.161-.161.29-.477.39-.948h.539Zm16.726 15.761c-.359 1.834-1.068 3.242-2.121 4.227-1.053.989-2.215 1.481-3.492 1.481-1.52 0-2.848-.663-3.976-1.989-1.131-1.326-1.695-3.113-1.695-5.371 0-2.186.627-3.962 1.88-5.325 1.253-1.367 2.754-2.051 4.505-2.051 1.316 0 2.4.363 3.247 1.088.849.72 1.273 1.471 1.273 2.253 0 .383-.121.694-.36.932-.239.238-.573.358-1.003.358-.574 0-1.007-.192-1.301-.575-.165-.213-.275-.622-.324-1.218-.055-.596-.255-1.051-.594-1.367-.344-.3-.812-.451-1.417-.451-.977 0-1.761.374-2.356 1.119-.787.994-1.182 2.305-1.182 3.931 0 1.658.39 3.124 1.177 4.393.785 1.269 1.842 1.906 3.179 1.906.953 0 1.811-.337 2.569-1.016.538-.466 1.057-1.31 1.567-2.537l.424.212Zm6.813-16.295c.409 0 .758.151 1.048.446.285.3.429.663.429 1.087 0 .425-.144.787-.429 1.093-.29.3-.639.456-1.048.456-.409 0-.756-.156-1.051-.456a1.534 1.534 0 0 1-.439-1.093c0-.424.144-.787.432-1.087.285-.295.64-.446 1.058-.446Zm1.213 7.267v11.172c0 .871.059 1.445.185 1.736.12.289.298.502.539.647.239.14.678.213 1.312.213v.543h-6.506v-.543c.654 0 1.092-.068 1.312-.202.224-.13.404-.348.534-.654.134-.3.199-.88.199-1.74v-5.36c0-1.508-.044-2.482-.129-2.927-.07-.326-.18-.549-.324-.673-.146-.13-.346-.192-.6-.192-.273 0-.602.078-.992.228l-.204-.549 4.029-1.699h.645Zm7.447 5.646c-.01 2.066.469 3.683 1.448 4.858.972 1.171 2.12 1.756 3.43 1.756.879 0 1.642-.249 2.291-.752.648-.496 1.187-1.356 1.626-2.568l.453.3c-.203 1.389-.797 2.652-1.779 3.786-.988 1.141-2.221 1.71-3.696 1.71-1.613 0-2.988-.647-4.131-1.948-1.148-1.3-1.716-3.051-1.716-5.247 0-2.377.583-4.232 1.76-5.557 1.172-1.332 2.644-2 4.419-2 1.503 0 2.735.513 3.698 1.544.962 1.025 1.445 2.399 1.445 4.118h-9.248Zm0-.881h6.196c-.049-.89-.15-1.517-.309-1.88a2.97 2.97 0 0 0-1.087-1.336c-.485-.321-.988-.487-1.512-.487-.809 0-1.531.326-2.169.978-.639.653-1.014 1.565-1.119 2.725Zm16.433-1.818c1.566-1.963 3.062-2.947 4.484-2.947.733 0 1.362.192 1.886.57.529.378.948 1.005 1.257 1.875.213.606.318 1.538.318 2.791v5.936c0 .876.07 1.477.211 1.788.105.254.28.45.518.595.236.14.679.213 1.321.213v.543h-6.623v-.543h.28c.622 0 1.062-.104 1.306-.302.249-.196.423-.486.518-.87.041-.15.06-.626.06-1.424v-5.692c0-1.264-.158-2.18-.474-2.756-.318-.569-.852-.855-1.6-.855-1.158 0-2.315.659-3.462 1.974v7.329c0 .938.049 1.518.159 1.74.134.296.324.513.563.648.241.135.724.208 1.451.208v.543h-6.618v-.543h.295c.677 0 1.142-.182 1.381-.539.235-.363.354-1.047.354-2.057v-5.164c0-1.668-.034-2.682-.11-3.045-.068-.368-.185-.616-.334-.746-.149-.129-.353-.197-.607-.197-.27 0-.601.078-.979.228l-.22-.549 4.037-1.699h.628v2.947Zm23.928 6.081c-.357 1.834-1.068 3.242-2.119 4.227-1.053.989-2.215 1.481-3.493 1.481-1.521 0-2.847-.663-3.975-1.989-1.133-1.326-1.697-3.113-1.697-5.371 0-2.186.629-3.962 1.882-5.325 1.252-1.367 2.754-2.051 4.504-2.051 1.317 0 2.399.363 3.247 1.088.85.72 1.273 1.471 1.273 2.253 0 .383-.12.694-.359.932-.239.238-.573.358-1.004.358-.573 0-1.007-.192-1.3-.575-.167-.213-.275-.622-.326-1.218-.054-.596-.253-1.051-.592-1.367-.346-.3-.814-.451-1.417-.451-.977 0-1.762.374-2.356 1.119-.788.994-1.182 2.305-1.182 3.931 0 1.658.389 3.124 1.177 4.393.784 1.269 1.842 1.906 3.178 1.906.953 0 1.811-.337 2.569-1.016.539-.466 1.058-1.31 1.567-2.537l.423.212Zm5.662-3.382c-.01 2.066.47 3.683 1.447 4.858.973 1.171 2.121 1.756 3.433 1.756.877 0 1.64-.249 2.289-.752.648-.496 1.187-1.356 1.626-2.568l.455.3c-.205 1.389-.799 2.652-1.782 3.786-.987 1.141-2.22 1.71-3.695 1.71-1.612 0-2.989-.647-4.132-1.948-1.147-1.3-1.716-3.051-1.716-5.247 0-2.377.583-4.232 1.762-5.557 1.171-1.332 2.643-2 4.42-2 1.501 0 2.734.513 3.695 1.544.963 1.025 1.448 2.399 1.448 4.118h-9.25Zm0-.881h6.196c-.049-.89-.149-1.517-.309-1.88a2.966 2.966 0 0 0-1.088-1.336c-.483-.321-.987-.487-1.511-.487-.807 0-1.531.326-2.17.978-.638.653-1.013 1.565-1.118 2.725Zm26.1 7.541c-1.37 1.104-2.235 1.74-2.588 1.912a3.8 3.8 0 0 1-1.677.384c-.927 0-1.692-.332-2.289-.99-.598-.658-.899-1.523-.899-2.595 0-.679.146-1.264.439-1.761.399-.683 1.093-1.331 2.081-1.943.987-.606 2.633-1.34 4.933-2.211v-.549c0-1.383-.209-2.336-.633-2.854-.424-.513-1.043-.772-1.851-.772-.614 0-1.102.171-1.462.518-.37.342-.553.736-.553 1.181l.029.88c0 .467-.114.824-.344 1.078-.229.254-.529.379-.897.379-.365 0-.658-.13-.887-.395-.231-.264-.346-.621-.346-1.077 0-.87.429-1.668 1.287-2.398.858-.725 2.06-1.093 3.611-1.093 1.188 0 2.161.207 2.924.622.575.316.997.807 1.272 1.476.175.435.261 1.321.261 2.667v4.718c0 1.327.024 2.141.073 2.441.051.294.131.497.239.595a.567.567 0 0 0 .39.155.756.756 0 0 0 .409-.108c.205-.13.6-.503 1.183-1.109v.849c-1.088 1.518-2.131 2.28-3.128 2.28-.475 0-.853-.171-1.138-.518-.283-.343-.429-.932-.439-1.762Zm0-.984v-5.298c-1.472.611-2.418 1.041-2.847 1.289-.775.446-1.321.912-1.652 1.399a2.753 2.753 0 0 0-.5 1.595c0 .726.21 1.332.629 1.814.419.475.904.719 1.448.719.743 0 1.716-.508 2.922-1.518Zm11.1-8.375c1.566-1.963 3.062-2.947 4.484-2.947.733 0 1.362.192 1.886.57.529.378.948 1.005 1.257 1.875.215.606.32 1.538.32 2.791v5.936c0 .876.07 1.477.209 1.788.105.254.279.45.519.595.235.14.678.213 1.322.213v.543h-6.625v-.543h.28c.622 0 1.061-.104 1.306-.302.249-.196.425-.486.52-.87.039-.15.058-.626.058-1.424v-5.692c0-1.264-.158-2.18-.473-2.756-.319-.569-.853-.855-1.601-.855-1.158 0-2.315.659-3.462 1.974v7.329c0 .938.049 1.518.159 1.74.136.296.324.513.563.648.24.135.724.208 1.453.208v.543h-6.62v-.543h.295c.677 0 1.141-.182 1.382-.539.234-.363.353-1.047.353-2.057v-5.164c0-1.668-.034-2.682-.11-3.045-.07-.368-.185-.616-.334-.746-.15-.129-.353-.197-.609-.197-.268 0-.599.078-.977.228l-.22-.549 4.037-1.699h.628v2.947Zm22.014 9.8c-.655.71-1.292 1.217-1.916 1.528a4.522 4.522 0 0 1-2.016.461c-1.462 0-2.737-.637-3.831-1.906-1.087-1.269-1.636-2.901-1.636-4.89 0-1.994.604-3.816 1.816-5.474 1.208-1.652 2.759-2.482 4.66-2.482 1.177 0 2.155.394 2.923 1.172v-2.565c0-1.59-.035-2.564-.11-2.932-.074-.362-.19-.61-.344-.74-.155-.135-.35-.197-.584-.197-.254 0-.59.077-1.007.243l-.19-.533 3.99-1.699h.655v16.072c0 1.627.038 2.621.11 2.979.073.362.188.611.353.75a.8.8 0 0 0 .559.213c.263 0 .619-.083 1.053-.259l.163.533-3.975 1.715h-.673v-1.989Zm0-1.062v-7.163a5.067 5.067 0 0 0-.524-1.88c-.295-.565-.683-.995-1.163-1.28-.483-.289-.953-.435-1.411-.435-.858 0-1.621.4-2.296 1.196-.886 1.057-1.331 2.59-1.331 4.616 0 2.045.429 3.61 1.287 4.697.858 1.088 1.811 1.632 2.864 1.632.887 0 1.745-.461 2.574-1.383Zm28.838-17.952.219 4.827h-.558c-.105-.849-.251-1.455-.439-1.823-.3-.585-.704-1.016-1.202-1.295-.504-.28-1.162-.42-1.981-.42h-2.793v15.725c0 1.264.134 2.052.392 2.367.371.425.945.638 1.712.638h.689v.559h-8.405v-.559h.703c.838 0 1.431-.264 1.781-.792.215-.322.324-1.063.324-2.213v-15.725h-2.384c-.923 0-1.582.073-1.971.213-.509.192-.942.565-1.302 1.108-.36.55-.573 1.285-.644 2.217h-.553l.234-4.827h16.178Zm3.556 11.913c-.01 2.066.469 3.683 1.446 4.858.973 1.171 2.122 1.756 3.434 1.756.877 0 1.64-.249 2.289-.752.648-.496 1.187-1.356 1.627-2.568l.452.3c-.204 1.389-.797 2.652-1.779 3.786-.989 1.141-2.221 1.71-3.698 1.71-1.611 0-2.986-.647-4.129-1.948-1.148-1.3-1.718-3.051-1.718-5.247 0-2.377.585-4.232 1.762-5.557 1.172-1.332 2.644-2 4.419-2 1.502 0 2.735.513 3.698 1.544.962 1.025 1.445 2.399 1.445 4.118h-9.248Zm0-.881h6.196c-.049-.89-.149-1.517-.309-1.88a2.984 2.984 0 0 0-1.087-1.336c-.485-.321-.988-.487-1.513-.487-.808 0-1.531.326-2.168.978-.641.653-1.014 1.565-1.119 2.725M552.039 123.374c-.359 1.834-1.068 3.242-2.12 4.227-1.052.989-2.214 1.481-3.493 1.481-1.521 0-2.848-.663-3.976-1.989-1.131-1.326-1.694-3.113-1.694-5.371 0-2.186.627-3.962 1.879-5.325 1.253-1.367 2.754-2.051 4.505-2.051 1.318 0 2.4.363 3.248 1.088.849.72 1.273 1.471 1.273 2.253 0 .383-.121.694-.361.932-.239.238-.573.358-1.002.358-.574 0-1.008-.192-1.301-.575-.166-.213-.275-.622-.325-1.218-.055-.596-.255-1.051-.594-1.367-.344-.3-.812-.451-1.416-.451-.978 0-1.762.374-2.355 1.119-.789.994-1.182 2.305-1.182 3.931 0 1.658.388 3.124 1.177 4.393.783 1.269 1.841 1.906 3.177 1.906.953 0 1.811-.337 2.569-1.016.539-.466 1.058-1.31 1.567-2.537l.424.212Zm7.344-16.295v10.168c1.076-1.233 1.935-2.025 2.567-2.378.634-.347 1.268-.523 1.903-.523.756 0 1.41.218 1.958.652.545.436.948 1.12 1.214 2.052.183.647.273 1.829.273 3.548v4.92c0 .876.07 1.482.21 1.803.095.243.26.435.494.58.234.14.663.213 1.287.213v.543h-6.576v-.543h.305c.624 0 1.058-.104 1.302-.302.244-.196.414-.486.509-.87.029-.16.044-.637.044-1.424v-4.92c0-1.518-.074-2.512-.223-2.989-.155-.476-.394-.828-.723-1.067-.334-.238-.734-.357-1.202-.357-.475 0-.975.129-1.487.394-.519.263-1.138.792-1.855 1.595v7.344c0 .949.049 1.538.149 1.771.105.234.293.431.573.586.275.155.753.239 1.437.239v.543h-6.636v-.543c.594 0 1.063-.1 1.403-.291.194-.103.354-.295.469-.574.119-.286.175-.86.175-1.731v-12.581c0-1.59-.036-2.564-.112-2.932-.068-.362-.183-.61-.334-.74-.149-.135-.353-.197-.607-.197-.205 0-.534.077-.994.243l-.203-.533 4.005-1.699h.675Zm16.431 10.214c1.566-1.963 3.062-2.947 4.483-2.947.734 0 1.363.192 1.887.57.529.378.948 1.005 1.257 1.875.215.606.32 1.538.32 2.791v5.936c0 .876.07 1.477.209 1.788.105.254.28.45.519.595.234.14.678.213 1.322.213v.543h-6.625v-.543h.28c.623 0 1.062-.104 1.306-.302.249-.196.424-.486.519-.87.04-.15.059-.626.059-1.424v-5.692c0-1.264-.159-2.18-.473-2.756-.319-.569-.853-.855-1.601-.855-1.158 0-2.316.659-3.462 1.974v7.329c0 .938.049 1.518.159 1.74.136.296.324.513.563.648.241.135.724.208 1.453.208v.543h-6.62v-.543h.294c.678 0 1.143-.182 1.382-.539.234-.363.354-1.047.354-2.057v-5.164c0-1.668-.034-2.682-.11-3.045-.068-.368-.185-.616-.334-.746-.149-.129-.353-.197-.609-.197-.268 0-.599.078-.977.228l-.22-.549 4.036-1.699h.629v2.947Zm19.105-2.947c2.026 0 3.652.803 4.883 2.398 1.045 1.368 1.562 2.937 1.562 4.703 0 1.248-.288 2.507-.863 3.781-.573 1.274-1.367 2.238-2.374 2.886-1.008.647-2.13.968-3.366.968-2.021 0-3.622-.834-4.809-2.502a7.975 7.975 0 0 1-1.507-4.734c0-1.279.303-2.543.912-3.801.609-1.259 1.412-2.192 2.406-2.793.992-.605 2.045-.906 3.156-.906Zm-.453.989c-.514 0-1.033.156-1.557.477-.519.321-.942.876-1.261 1.678-.324.798-.485 1.823-.485 3.077 0 2.025.39 3.77 1.163 5.236.773 1.466 1.796 2.202 3.062 2.202.943 0 1.721-.404 2.34-1.213.614-.813.918-2.201.918-4.174 0-2.471-.509-4.413-1.537-5.827-.688-.974-1.571-1.456-2.643-1.456Zm14.969-8.256v18.439c0 .871.066 1.445.185 1.731.12.279.31.496.563.641.256.146.724.224 1.418.224v.543h-6.561v-.543c.614 0 1.034-.068 1.253-.202.224-.13.404-.348.529-.654.124-.3.19-.88.19-1.74v-12.627c0-1.57-.036-2.533-.1-2.89-.071-.358-.18-.606-.329-.736a.842.842 0 0 0-.58-.197c-.254 0-.573.077-.963.243l-.249-.533 3.991-1.699h.653Zm11.758 7.267c2.026 0 3.652.803 4.885 2.398 1.041 1.368 1.562 2.937 1.562 4.703 0 1.248-.29 2.507-.865 3.781-.573 1.274-1.367 2.238-2.374 2.886-1.009.647-2.13.968-3.366.968-2.021 0-3.622-.834-4.81-2.502a7.974 7.974 0 0 1-1.506-4.734c0-1.279.303-2.543.912-3.801.609-1.259 1.412-2.192 2.405-2.793.993-.605 2.046-.906 3.157-.906Zm-.453.989c-.514 0-1.033.156-1.557.477-.519.321-.942.876-1.263 1.678-.322.798-.483 1.823-.483 3.077 0 2.025.39 3.77 1.163 5.236.773 1.466 1.796 2.202 3.062 2.202.944 0 1.722-.404 2.34-1.213.614-.813.918-2.201.918-4.174 0-2.471-.509-4.413-1.536-5.827-.689-.974-1.572-1.456-2.644-1.456Zm13.947 8.251c-.817-.414-1.446-.989-1.886-1.735a4.777 4.777 0 0 1-.653-2.465c0-1.378.499-2.559 1.496-3.554.997-.989 2.275-1.486 3.837-1.486 1.277 0 2.379.326 3.317.974h2.833c.421 0 .665.01.733.036a.254.254 0 0 1 .146.13c.059.092.09.254.09.486 0 .264-.026.446-.075.544a.298.298 0 0 1-.154.124c-.072.031-.319.042-.74.042h-1.736c.544.73.819 1.663.819 2.797 0 1.295-.478 2.398-1.431 3.32-.96.922-2.24 1.383-3.846 1.383a7.222 7.222 0 0 1-2.031-.305c-.429.382-.719.719-.869 1.009-.154.291-.228.534-.228.736 0 .171.079.337.239.502.164.161.478.275.942.348.275.041.959.077 2.051.108 2.005.046 3.308.119 3.901.212.903.13 1.627.477 2.169 1.046.539.565.809 1.264.809 2.093 0 1.145-.514 2.217-1.547 3.217-1.521 1.476-3.501 2.217-5.946 2.217-1.881 0-3.471-.44-4.769-1.322-.729-.507-1.093-1.03-1.093-1.579 0-.243.051-.481.161-.725.164-.378.507-.897 1.022-1.564.07-.093.563-.637 1.491-1.637-.509-.316-.863-.596-1.072-.845a1.265 1.265 0 0 1-.315-.843c0-.353.135-.767.415-1.244.28-.476.918-1.149 1.92-2.02Zm2.545-8.51c-.719 0-1.326.3-1.811.896-.49.596-.734 1.512-.734 2.746 0 1.601.334 2.838.999 3.719.503.668 1.146.999 1.924.999.743 0 1.353-.285 1.827-.865.479-.575.718-1.481.718-2.714 0-1.611-.334-2.869-1.007-3.781-.5-.668-1.138-1-1.916-1Zm-2.69 13.581c-.459.518-.803.995-1.037 1.44-.234.445-.349.855-.349 1.233 0 .482.28.907.849 1.274.972.627 2.379.937 4.219.937 1.755 0 3.047-.321 3.881-.963.833-.643 1.252-1.327 1.252-2.056 0-.523-.248-.896-.748-1.12-.504-.222-1.511-.356-3.008-.398-2.196-.056-3.88-.176-5.059-.347Zm12.267-13.902h6.242v.565h-.306c-.437 0-.768.099-.988.295a.946.946 0 0 0-.329.736c0 .393.161.942.485 1.636l3.258 7.013 2.997-7.676c.164-.419.244-.828.244-1.233 0-.181-.035-.316-.1-.409a.821.821 0 0 0-.364-.263c-.17-.068-.458-.099-.877-.099v-.565h4.354v.565c-.359.041-.637.119-.834.243-.193.119-.408.347-.643.684-.089.139-.254.528-.498 1.165l-5.446 13.871c-.531 1.347-1.218 2.362-2.071 3.051-.854.689-1.672 1.031-2.466 1.031-.572 0-1.047-.171-1.415-.518-.37-.342-.554-.736-.554-1.182 0-.424.135-.766.398-1.025.27-.259.639-.388 1.109-.388.317 0 .756.114 1.311.336.388.151.632.228.734.228.288 0 .607-.161.956-.471.346-.316.694-.922 1.045-1.823l.953-2.408-4.811-10.489a8.604 8.604 0 0 0-.702-1.166c-.244-.357-.444-.595-.6-.714-.224-.161-.583-.306-1.082-.425v-.565Zm29.757-.409c2.025 0 3.651.803 4.884 2.398 1.042 1.368 1.561 2.937 1.561 4.703 0 1.248-.289 2.507-.863 3.781-.573 1.274-1.368 2.238-2.375 2.886-1.008.647-2.13.968-3.368.968-2.019 0-3.62-.834-4.807-2.502-1.004-1.409-1.507-2.988-1.507-4.734 0-1.279.303-2.543.912-3.801.61-1.259 1.414-2.192 2.404-2.793.994-.605 2.047-.906 3.159-.906Zm-.454.989c-.514 0-1.033.156-1.557.477-.519.321-.943.876-1.262 1.678-.325.798-.483 1.823-.483 3.077 0 2.025.389 3.77 1.162 5.236.773 1.466 1.796 2.202 3.062 2.202.943 0 1.721-.404 2.34-1.213.614-.813.919-2.201.919-4.174 0-2.471-.51-4.413-1.538-5.827-.688-.974-1.57-1.456-2.643-1.456Zm15.598.513v9.137c0 1.294.139 2.113.41 2.46.363.445.843.669 1.445.669h1.219v.543h-7.998v-.543h.598c.39 0 .75-.104 1.069-.306.32-.202.544-.477.664-.819.124-.346.185-1.015.185-2.004v-9.137h-2.606v-1.093h2.606v-.906c0-1.388.214-2.564.643-3.522a5.384 5.384 0 0 1 1.965-2.331c.883-.591 1.872-.886 2.973-.886 1.022 0 1.965.342 2.823 1.031.565.456.844.968.844 1.534 0 .304-.125.589-.38.854-.254.269-.523.404-.817.404-.225 0-.459-.083-.709-.248-.249-.167-.554-.529-.912-1.078-.361-.555-.695-.922-.994-1.119a1.841 1.841 0 0 0-1.007-.285c-.449 0-.829.125-1.143.373-.308.243-.534.632-.673 1.149-.134.524-.205 1.866-.205 4.031v.999h3.452v1.093h-3.452Zm29.303-8.235.454 6.992h-.454c-.604-2.093-1.467-3.6-2.584-4.522-1.123-.921-2.464-1.383-4.036-1.383-1.316 0-2.503.347-3.566 1.042-1.063.693-1.896 1.797-2.505 3.314-.608 1.518-.912 3.408-.912 5.662 0 1.859.285 3.475.863 4.842.573 1.363 1.437 2.41 2.593 3.139 1.153.731 2.469 1.093 3.951 1.093 1.287 0 2.42-.285 3.408-.86.982-.57 2.065-1.704 3.242-3.403l.453.3c-.992 1.834-2.153 3.176-3.476 4.026-1.326.849-2.9 1.274-4.724 1.274-3.283 0-5.827-1.264-7.628-3.797-1.341-1.881-2.016-4.098-2.016-6.646 0-2.05.445-3.941 1.328-5.66.889-1.72 2.11-3.051 3.661-3.999a9.644 9.644 0 0 1 5.094-1.414c1.433 0 2.848.362 4.241 1.087.408.223.702.337.878.337a.943.943 0 0 0 .682-.29c.254-.269.434-.653.544-1.134h.509Zm8.312-.534v10.168c1.076-1.233 1.935-2.025 2.567-2.378.634-.347 1.268-.523 1.901-.523.758 0 1.412.218 1.96.652.546.436.948 1.12 1.214 2.052.183.647.273 1.829.273 3.548v4.92c0 .876.07 1.482.21 1.803.095.243.26.435.494.58.234.14.663.213 1.287.213v.543h-6.576v-.543h.305c.624 0 1.058-.104 1.302-.302.245-.196.414-.486.509-.87.031-.16.046-.637.046-1.424v-4.92c0-1.518-.076-2.512-.226-2.989-.154-.476-.393-.828-.722-1.067-.334-.238-.734-.357-1.202-.357-.475 0-.973.129-1.489.394-.517.263-1.136.792-1.853 1.595v7.344c0 .949.049 1.538.149 1.771.105.234.293.431.573.586.275.155.753.239 1.436.239v.543h-6.633v-.543c.592 0 1.062-.1 1.401-.291.194-.103.354-.295.469-.574.119-.286.175-.86.175-1.731v-12.581c0-1.59-.036-2.564-.11-2.932-.07-.362-.185-.61-.334-.74-.15-.135-.355-.197-.609-.197-.205 0-.534.077-.992.243l-.205-.533 4.005-1.699h.675Zm15.932 0c.409 0 .758.151 1.048.446.283.3.429.663.429 1.087 0 .425-.146.787-.429 1.093-.29.3-.639.456-1.048.456-.41 0-.758-.156-1.053-.456a1.543 1.543 0 0 1-.439-1.093c0-.424.144-.787.434-1.087a1.414 1.414 0 0 1 1.058-.446Zm1.212 7.267v11.172c0 .871.06 1.445.185 1.736.119.289.299.502.538.647.239.14.68.213 1.312.213v.543h-6.506v-.543c.655 0 1.093-.068 1.312-.202.226-.13.406-.348.535-.654.135-.3.198-.88.198-1.74v-5.36c0-1.508-.042-2.482-.127-2.927-.071-.326-.18-.549-.324-.673-.146-.13-.346-.192-.6-.192-.275 0-.604.078-.994.228l-.203-.549 4.03-1.699h.644Zm9.099 2.947c1.567-1.963 3.063-2.947 4.484-2.947.734 0 1.363.192 1.887.57.529.378.948 1.005 1.257 1.875.213.606.318 1.538.318 2.791v5.936c0 .876.07 1.477.21 1.788.104.254.28.45.519.595.234.14.677.213 1.321.213v.543h-6.623v-.543h.278c.624 0 1.063-.104 1.307-.302.25-.196.424-.486.519-.87.041-.15.06-.626.06-1.424v-5.692c0-1.264-.16-2.18-.475-2.756-.317-.569-.851-.855-1.601-.855-1.156 0-2.314.659-3.461 1.974v7.329c0 .938.049 1.518.158 1.74.136.296.326.513.565.648.239.135.724.208 1.451.208v.543h-6.618v-.543h.294c.678 0 1.142-.182 1.381-.539.234-.363.353-1.047.353-2.057v-5.164c0-1.668-.032-2.682-.108-3.045-.07-.368-.185-.616-.335-.746-.149-.129-.354-.197-.608-.197-.27 0-.599.078-.977.228l-.22-.549 4.035-1.699h.629v2.947Zm20.143 9.359c-1.372 1.104-2.235 1.74-2.589 1.912a3.793 3.793 0 0 1-1.676.384c-.927 0-1.692-.332-2.29-.99-.597-.658-.898-1.523-.898-2.595 0-.679.145-1.264.44-1.761.398-.683 1.092-1.331 2.08-1.943.987-.606 2.632-1.34 4.933-2.211v-.549c0-1.383-.21-2.336-.634-2.854-.422-.513-1.043-.772-1.85-.772-.614 0-1.102.171-1.462.518-.369.342-.554.736-.554 1.181l.03.88c0 .467-.115.824-.344 1.078-.229.254-.529.379-.897.379a1.12 1.12 0 0 1-.889-.395c-.23-.264-.344-.621-.344-1.077 0-.87.429-1.668 1.287-2.398.858-.725 2.06-1.093 3.612-1.093 1.187 0 2.16.207 2.923.622.574.316.999.807 1.272 1.476.175.435.259 1.321.259 2.667v4.718c0 1.327.026 2.141.075 2.441.051.294.131.497.241.595a.56.56 0 0 0 .388.155.761.761 0 0 0 .409-.108c.205-.13.599-.503 1.182-1.109v.849c-1.087 1.518-2.13 2.28-3.129 2.28-.473 0-.851-.171-1.136-.518-.285-.343-.429-.932-.439-1.762Zm0-.984v-5.298c-1.472.611-2.418 1.041-2.849 1.289-.773.446-1.321.912-1.651 1.399a2.75 2.75 0 0 0-.497 1.595c0 .726.208 1.332.627 1.814.419.475.904.719 1.447.719.744 0 1.716-.508 2.923-1.518M740.752 24.74c.041-1.072.084-2.144.126-3.214 3.247-.898 1.189-8.141 4.48-9.343h1.091c.344 1.285 1.352 2.964 1.758 4.329v2.827c1.155 5.282.377 7.561-.643 12.085-5.022.621-4.568-3.672-6.812-6.684Zm13.24 37.153c-.037-6.072 4.865-4.828 9.257-6.171 1.971-.602 5.477-2.29 6.815-3.728.692-.745.951-1.971 1.67-2.699-.256-.398-.423-1.197-.644-1.672-.953-.507-2.274-1.512-3.085-1.8-1.287-.457-2.672-.105-3.728-.643-6.245.589-15.654 5.657-17.741 9.899l-.128 3.343c1.038.617 1.819 1.653 2.443 2.7-.179 2.764-.098 6.009-3.214 6.171a15.462 15.462 0 0 1-2.316-1.8c-1.043.829-1.478.985-3.084.643-.849-1.625-4.805-10.93-4.371-12.342.475-1.374 2.831-1.795 3.856-2.314 2.481-1.258 4.292-4.207 6.427-5.914 1.125-.897 2.548-.605 3.987-1.285 3.382-1.6 5.829-5.406 8.613-8.229 3.039-3.078 7.516-3.57 10.028-7.07-.086-.172-.172-.343-.256-.514h-.129c-1.903 1.735-7.57 5.655-11.313 2.956-1.233-.887-1.218-3.173-2.058-4.499-.526-.829-1.792-1.15-1.929-2.314.214-.6.43-1.2.643-1.8 2.51-.023 7.287 3.353 8.742 4.756 3.523-1.117 7.122-2.181 10.544-4.114 1.306-.738 3.32.818 3.854.386 1.698 1.236 4.28 7.865.901 9.257-1.572.47-4.099.346-5.785.772-4.079 1.029-9.163 3.612-11.827 6.299l.128.257h.257c1.521.438 4.298-.575 6.3.386 4.746 2.275 10.779 4.187 10.67 11.699-.93.355-1.466 1.26-2.443 1.671-2.469 1.039-4.985.881-6.941 2.185v.772c.516.682 1.041 1.39 1.028 3.085-.779.526-.599 1.557-1.158 2.314-1.906 2.587-4.599 4.676-5.4 7.714l1.415 1.542c3.529 1.331 19.056-7.08 16.842 2.186-.312 1.308-1.162 1.903-1.544 2.957-1.879.025-2.715-.332-3.984-.643-2.202-.539-9.19 1.965-10.415 2.828.372 2.377.642 4.613.645 7.714-.622.32-.752 1.069-1.287 1.414-1.158.747-2.435.731-3.728 1.285-.762.327-2.245 1.423-3.342 1.801-7.408 2.545-14.906-4.207-16.584-9.128l.129-.129c2.096.023 5.116 2.417 7.198 3.472l2.956.128c5.544 0 9.015-2.245 11.444-5.657l-.13-1.286-.9-.514c-3.044-1.283-8.289 1.67-10.799 2.058-2.654.409-8.729.287-10.799-1.03-.527-.334-.933-1.24-1.285-1.413v-1.671l1.67-1.286h11.058c1.1-.326 2.462-1.448 3.471-1.8 1.588-.555 3.226-.372 4.627-.643.215-.257.428-.514.644-.771-.089-1.009-1.017-2.229-.514-3.728.908-2.715 2.027-4.524 3.342-7.2-.31-.412-.636-.677-1.158-.514-2.281.165-4.123 1.663-7.585 1.671Zm-69.55 2.443c-.053-.77-.451-.456 0-.772.475-2.742 5.207-4.309 8.098-2.442 3.84 2.479 10.706 7.349 10.028 14.013-2.849 1.346-2.908 4.294-7.328 4.113-.353-.939-1.711-1.85-2.313-2.699l-.771-3.214c-1.143-2.752-5.14-8.777-7.714-8.999ZM661.43 47.495c.127-.344.257-.686.384-1.03 1.986.205 4.118.705 6.044 1.287 2.315.7 10.034-2.244 10.542-3.215 1.293-2.244.969-15.526 0-17.612-.886-1.901-2.296-2.503-2.314-5.528 1.903-.784 1.85-1.07 5.014-1.029 3.487 2.447 3.6 7.913 3.599 13.756 0 1.991-.583 8.109-.257 8.357 1.617.476 7.435-1.862 8.485-2.572.182-1.961-.56-2.813-1.929-3.857.044-.642.087-1.285.129-1.928l.771.129c1.114.6 2.044 1.908 3.213 2.313 3.154 1.097 6.347.408 9.386 1.286.188.545.298.406.514.9v2.315c-.716.321-.894 1.281-1.543 1.67-.869.523-3.394.269-4.499.644-3.003 1.017-14.483 5.61-16.586 7.841-1.283 1.366-.596 3.874-1.283 5.915-1.893 5.604-5.78 17.589-13.499 14.527l-1.672-.129c-1.089-.635-2.002-1.829-3.086-2.442l.129-1.543c.886-.376 1.985-1.948 2.571-2.185 1.981-.798 3.933-.491 5.528-1.286 2.071-1.032 6.279-8.246 5.529-10.543-3.229-.55-7.226.025-10.799 0-.93-1.357-2.529-2.276-3.473-3.599-.514-.722-.466-1.673-.898-2.442Zm-43.454-26.613v-1.799l.643-.515c5.027.555 14.67 1.216 14.526 7.972-2.049 3.271-2.892 5.801-8.097 4.113-.4-.853-.886-2.04-1.287-2.828l-2.186-.515c.07-2.291-2.345-5.91-3.599-6.428Zm-22.37 42.811c1.129.48 2.636.473 3.6-.129.904-.563 1.78-.056 2.443-.771 1.446-1.561.026-6.113-1.542-6.813h-1.158l-3.214 7.456c-.043.086-.085.172-.129.257Zm-14.141 12.985c.09-2.073 1.133-3.945 1.542-5.914.267-1.287-.443-3.078-.384-4.242 3.166-.555 7.468-7.925 10.155-10.157 1.087-.903 2.901-2.272 4.242-2.7l1.672.257c2.021.418 3.796-.277 4.886-.771.041-.772.057-1.652-.257-2.057-.113-.256-.752-1.309-.901-1.028-1.08.044-1.923 1.113-2.827 1.671h-1.929c-3.745 0-6.231-3.594-5.4-7.585 3.374 1.029 9.03 1.002 11.828-1.029.641-4.929 1.156-12.002 2.956-15.941.673-1.473-.893-5.2.129-7.97h2.057l1.156 1.67c.344.872 2.091 10.313 1.801 11.185-.522 1.565-2.386 7.142-1.672 8.613l.257.515c2.638.024 5.671-1.66 6.558-3.857.662-1.643-.801-2.286-.514-3.214h.642c1.45.837 7.014 1.616 9.127 1.928v2.572l-.899.514-.387-.514c-3.623 1.252-11.758 4.952-12.598 7.713-.897-.04-2.052-.083-2.572.257-2.632 1.559-.578 5.498-1.541 8.871-.288 1.005-.752 2.43-.514 3.729l1.413.128c1.734-3.228 6.425-4.578 9.9-1.799 2.881 2.304.658 4.598 1.799 7.97.668 1.976 2.782 3.04 3.599 5.656.044.141.352.696.514.386 2.209 6.176-6.585 6.156-9.898 5.913-.399-.771-1.357-1.61-1.672-2.441-1.367-3.609-1.282-8.449-4.627-10.028-5.49 3.954.83 12.431-1.801 19.155h-.128c-.638-.615-1.788-.678-2.443-1.286-1.634-1.513-2.821-4.385-3.599-7.199-.786-2.841 1.7-5.261.899-6.942-.316-.194-.432-.355-.642-.643-2.256-.114-5.793.815-6.558 2.7-.465 1.148-.109 1.964-.642 3.085-.948 1.994-4.471 7.548-6.299 8.485-1.542.493-3.248-.443-4.242-1.285.689-2.164-.966-4.147-2.186-4.371ZM537.24 38.624c.352.287.246.301.899.386 1.629-.719 5.701-1.565 6.558-3.086v-1.671c-.842-1.8-2.998-3.439-4.5-4.628h-.257c-1.015 1.918-2.657 6.313-2.7 8.999Zm-20.954 29.054c.427 1.457.856 2.914 1.285 4.372 2.023 3.673 8.983 5.839 13.756 3.085.637-1.978-5.131-10.215-6.815-11.571h4.885c1.118.671 8.036 2.968 8.487 2.7 1.368-1.129 1.657-10.614.514-11.313-.498-.295-1.019-.235-1.672-.129-.688 1.366-1.945 3.665-3.214 4.758h-.642c-1.047-1.612-2.081-3.118-2.957-5.144-.849-1.961.443-5.197-.257-6.813-5.27-.708-5.16 3.218-7.33 5.913-3.075 3.825-6.089 7.52-6.04 14.142Zm-24.813 2.057v-2.571c1.47-.782 2.328-2.468 3.6-3.471a8.34 8.34 0 0 1-.515-3.856c1.056-.012 4.576.777 6.815 0 2.041-.71 10.687-3.67 11.569-5.144 1.025-1.712-.031-6.646.772-8.356.527-1.125 2.947-4.536 2.186-6.042-2.119-2.664-10.581 2.799-10.544-3.985.351-.07.267-.081.644-.386 1.241-.014 2.487.231 3.343.642 2.139-.926 8.361-3.156 9.642-5.27 1.943-3.208.967-7.087 3.985-9.642 2.325-.239 4.239.241 6.171 1.157-1.254 4.036-4.404 5.852-6.171 9.513-1.246 2.581-1.456 7.584-1.929 10.028v2.571c-.293-.009-1.079 3.206-1.156 3.857l.385.386.643-.128h.257c.538-.427 1.345-1.2 1.543-1.929v-1.415c.377-.654 1.217-1.242 1.542-1.928 2.586.071 5.869-.637 6.686-2.056.856-1.827.056-5.595.771-7.071.742-1.531 1.829-5.119 2.314-6.814 1.002-3.5-2.961-6.631-.771-8.356 1.598-1.772 4.977.684 5.785 1.542 1.711 1.818-.185 3.9.643 6.299.678 1.966 4.585 3.491 6.299 4.371l5.914.772.387.514-.129 1.414c-1.409 2.536-5.579 4.146-7.457 5.528-1.407 1.036-2.265 3.111-3.729 3.986-1.95 1.165-4.222.704-5.4 2.57l-.127 1.287c-.786-.132-.597 1.338-.515 1.8 1.698.729 7.559 1.781 8.356 3.085 1.664 2.718 1.47 8.531.644 12.342-.251 1.149-.808 2.311-.515 3.985 6.886 2.211 16.871 7.863 8.099 15.17-6.88.028-6.902-3.932-11.956-5.786-1.052-.385-4.559 1.255-5.142 1.544l-2.315.128c-3.159 1.042-7.129 1.789-10.283 1.029-1-2.183-2.757-4.416-4.372-5.914h-.128l-.386.386c.029 3.142 2.756 7.189 1.028 10.156-.493-.24-1.414-.059-2.056-.386-1.751-.891-2.327-2.859-3.344-4.499-.255-.858-.512-1.715-.771-2.572l-3.47-3.085c-.801-.956-.475-3.177-1.415-3.986-1.26-1.082-8.303 3.679-11.699 2.187-1.827-.804-2.815-2.296-3.728-3.601Zm-39.468-39.596 1.157-.771c-.042-.712-.09-.664-.386-1.029h-.13l-.255.129c-.206.642-.064 1.112-.386 1.671Zm-1.029.643.514.386.385-.258v-.642l-.385-.129-.257.129-.257.514Zm-26.613.515c-.024-2.689.05-5.023 1.03-7.071l-.257-2.829c.804-.094 3.599-.771 3.599-.771 1.873 3.295 1.62 7.204 4.243 9.899v3.857c-.668.288-1.356 1.312-1.929 1.799-4.174.074-5.534-2.336-6.686-4.884Zm-6.556 29.054V55.08c3.069-.471 4.606-3.223 6.042-5.4 1.828-2.765 6.779-6.306 10.157-8.356.997-.605 7.447-3.873 6.943-4.114 1.259-.624 6.613-2.984 6.813-4.371l-.128-.257c-.812-.224-5.148-1.931-5.786-2.443-.677-.543-1.233-1.804-1.8-2.057v-.643c3.57 1.025 11.192-.47 12.985-1.799 1.045-.775 2.369-1.865 3.856-2.315 1.806-.546 8.169 2.918 9.129 3.729l-.128 1.928c-.804.364-1.844 1.268-2.573 1.8h-1.028c-2.096.676-8.503 2.36-10.027 3.986l.257 1.156 2.313 1.157 2.186.129c2.794 1.489 11.2 12.546 5.271 16.97-.589.44-5.538 2.061-5.014 2.314-2.423.928-5.048-.99-6.169 1.156-.045 1.244-.087 2.487-.13 3.729-.927 1.834-3.309 4.033-4.756 5.529-.061.861-.113 1.171.514 1.414.324.696 1.523.874 2.443.9.568-.702.863-.947 1.156-2.058 4.526-.04 6.692 1.645 10.414 2.442.419.919 1.691 3.544 1.414 4.243-.538.634-1.046 1.519-1.799 1.929-3.745 1.01-5.281-2.816-8.228-2.314-.306-.381-2.155 1.401-2.315 1.929-.257.847.353 1.75.514 2.185v2.571c.553 3.301-.832 5.804-3.213 6.942-2.959 1.415-10.785-.823-12.6-1.799.038-.469-3.358-2.307-4.242-2.443.042-.086.087-.172.129-.257 3.67-.741 10.2-1.539 12.855-3.472.587-.425 3.817-2.408 2.316-3.342-1.526-.63-5.659-.13-6.943.514-1.505.755-7.933-1.039-8.228-1.285-.66-.552-.999-1.072-1.285-1.8.185-.373.203-.387.257-.643 4.136.028 10.122-.677 14.013-1.415l.771-1.028v-.515c-.66-.519-.847-.828-1.8-1.156-.018-1.722-.153-3.556.642-4.886.791-1.318 3.164-4.365 2.828-6.041-.19-.424-.373-.676-.771-.9-3.511-1.403-7.372 5.82-9.384 3.728.191-2.243.581-4.937 1.927-6.429 2.207-2.444 8.041-2.335 10.157 0 2.43.06 3.434-.985 4.884-1.799 1.777-.996 4.238-1.673 5.273-3.343.116-.189.101-.751.385-.385 2.466-4.41-4.066-8.578-6.429-9.257-4.341-1.247-9.588 3.932-11.056 5.914-2.975 4.02-8.526 6.789-11.827 10.928-1.393 1.747-1.079 4.19-1.929 6.556-.483 1.347-1.396 2.918-2.056 4.115-2.674.368-5.513-1.286-6.556-3.215-.601-1.111.096-2.263-.644-3.085Zm-34.325-9.642c.403-.035.986-.267 1.286-.772.262-.603.004-.847-.387-1.157l-.385.258c-.172.557-.344 1.114-.514 1.671Zm-13.885-6.428c.471.582.773.772 1.544.385.067-.989.324-.858.512-1.671a85.641 85.641 0 0 0-.384-.514l-1.156.514c-.216.64-.39.487-.516 1.286Zm-4.885 14.784c2.072.991 5.34-1.498 6.429-2.571-.129-.557-.259-1.114-.386-1.672-.258-.213-.515-.428-.772-.642-1.355.914-4.339 2.844-5.271 4.114v.771Zm-12.599-14.913c.339.166.45.221 1.03.258 1.531-.65 1.942-1.594 2.955-2.7l-.128-1.286-1.542.128c-1.112.65-2.207 1.988-2.315 3.6Zm-2.958 11.314c.529.184.416.229.901 0 .699-1.091 7.301-6.51 5.657-7.843-4.755-2.029-6.693 3.732-6.558 7.843Zm-6.04-5.4.899.772h1.672c.389-.338.519-.519.642-1.158l-1.029-.642c-.037.232-1.914.479-2.184.642v.386Zm-5.53 15.427c1.813-.439 9.722-5.343 5.915-7.585h-.899c-.852 3.113-3.999 4.432-5.016 7.585Zm-10.926 7.971.129-7.071c1.757-.456 10.892-12.574 12.342-14.784-.318-.191-.434-.233-1.029-.257-.853.56-8.893 3.282-10.414 1.928a36.935 36.935 0 0 0-.386-.257c-.041-5.638 4.427-8.29 7.586-10.542 2.324-1.658 3.717-3.649 5.657-5.915 1.967-2.299 7.121-5.901 8.354-8.999.564-1.412.66-3.541.644-5.399 3.086-.937 5.467-.255 7.457 1.285-2.036 7.606-14.69 16.35-20.442 21.727-1.377 1.289-2.95 1.951-4.113 3.472l.257.386c2.065.049 5.032-.968 6.684-1.672l6.815-.771c1.875-1.127 1.565-2.71 2.698-4.628 1.513-2.558 2.65-5.377 5.273-7.199h3.47c.401.738 1.195 1.058 1.673 1.671 1.125 1.444 1.796 3.325 2.828 4.756 1.231-.861 4.088-3.646 2.955-5.784-.586-1.11-1.961-1.865-1.156-3.344.161-1.306 3.39-2.76 4.885-2.699.175 1.602 1.65 3.471 2.827 4.114 2.686 1.146 1.921-2.23 2.444-3.986 1.1-3.696-1.14-12.132 3.857-12.084.285.597 2.589 2.275 3.213 2.957h.257c.802 1.709 1.433 2.558 2.445 3.985 1.039 1.471 2.168 4.849 2.57 6.814.364 1.778-1.547 2.777-.771 4.756 1.04 2.653 4.099 4.231 5.399 6.685.763 1.439.452 3.262 1.414 4.114 1.874 1.659 4.066 2.266 5.785 4.244v1.412c-.835.366-1.724 1.211-2.57 1.672-1.142.622-2.836.467-3.599.643-2.905.67-6.539 1.684-8.101 3.728-1.138 1.488-1.089 8.56-1.799 10.928-.043.985-.085 1.971-.13 2.957-.903 1.638-1.35 4.3-1.797 6.041v1.544c-1.577 3.065-2.44 6.076-3.988 8.742-.085 1.114-.17 2.228-.257 3.343l-.384-.129c-.465-.986-1.651-1.575-2.186-2.443-.919-1.485-1.187-3.235-1.802-4.756v-2.7c-.813-3.294-.055-10.042-.641-14.656-.336-.111-.449.052-.257-.257-3.956.863-7.285 1.723-10.67 3.214l-5.529.128c-2-1.731-1.648-7.197-.772-9.899 1.743-.617 4.548-2.831 5.271-4.499l.13-1.414c2.15-3.116 5.554-5.659 3.857-10.928a61.255 61.255 0 0 0-.258-.128c-5.764 4.001-4.675 7.82-8.356 12.984-2.499 3.506-4.451 3.487-6.301 8.485-1.644 4.443 2.193 10.95 2.186 14.398-.594.253-.842.759-1.285 1.158h-1.286c-1.236-1.924-2.434-3.492-3.599-5.785-.791-1.559-.286-3.565-1.028-5.015l-.901.13c-2.516 3.948-7.769 6.44-14.399 6.427-.239-.546-.81-.61-1.027-1.029-.044-.599-.086-1.199-.129-1.799Zm-49.368-18.642c.691.692.925 2.09 1.544 2.828l.513-.127c.208-1.053 1.608-3.694.386-4.629l-.386-.515c-.711-.017-1.142.06-1.543.259-.098 1.087-.447.981-.514 2.184Zm-8.485-3.085.129.772h.257c.128.042.258.085.385.129l.773-.901c.03-.676.12-.896-.129-1.414l-.257-.386-.387.258-.771 1.542Zm-8.742 2.957.771.386c1.346-.395 1.973-1.344 2.957-2.057v-1.157h-.257l-.642-.129c-.902 1.136-1.997 1.613-2.829 2.957Zm-7.971 19.413c.378.357 3.658 2.463 3.985 2.571 1.754.579 11.253-1.064 11.829-1.671-.393-.522-.593-1-.771-1.8h.257c2.238-.979 5.138 5.177 8.485-1.029 2.233.711 6.153 4.078 8.87 2.7 5.402-2.74 6.556-11.224 6.556-20.312 0-2.962.493-7.234-.512-9.386v-3.47c-.005-2.222-.254-6.938-1.158-8.742l-.129-3.6c-.757-3.075-1.378-6.278-2.442-8.742-13.014-1.837-21.587 2.245-27.256 10.156-1.038 1.45-5.366 6.936-3.856 9.899 3.191-.119 7.409-5.129 9.77-6.557.129-.077 2.186-.514 2.186-.514 10.601-1.041 4.071 7.536 3.986 12.213 1.445 1.023 5.658 4.881 7.97 3.6.256-.3.515-.6.772-.9 3.117.056 10.258 5.232 6.685 9.127-1.216 1.328-3.512 2.059-5.015 3.087-2.04 1.395-4.082 3.681-6.172 5.271-.139.106-1.131.367-.641.643-2.157 1.187-5.094 2.111-7.457 3.599-1.548.976-4.677-.185-5.913.128-.751-1.403-3.17-4.056-1.801-6.814.617-1.14 2.438-2.582 3.471-3.342-.042-1.04-.249-1.153-1.156-1.028-1.524 1.77-5.736-2.504-6.043-3.343v-3.599c1.213-.712 1.901-1.664 3.214-2.443 3.04-1.805 8.902-2.409 7.329-7.842l-.773-.13c-1.939 1.852-9.42 1.262-11.056 3.858-1.087.902.036 4.07-.899 5.657-.951-.081-.54 2.261-1.157 3.342-1.965 3.434.309 10.782-.515 14.656a35.993 35.993 0 0 0-.643 4.757Zm-7.712 1.156c.019-5.627 2.066-11.066 3.214-15.941v-3.471c0-5.932-2.631-11.585-1.801-16.841 1.722-10.896 11.553-16.786 21.085-19.798 3.625-1.147 14.961-4.724 19.67-1.929.653.388 2.353.171 3.213.772 8.766 6.122 6.567 26.155 6.685 40.11.057 6.796 1.376 16.799-1.929 20.827-.861 1.049-10.687 7.822-13.499 6.3-3.156-1.709-5.249-5.813-9.256-6.043-1.482-.085-3.106 1.233-4.113 1.8-.753.425-10.09 1.749-11.699 1.285-1.931-.555-2.594-1.926-3.858-3.085h-.385c-1.13 1.016-1.817 2.468-4.113 2.443-.416-.867-1.379-1.613-1.801-2.443-.698-1.375-.716-2.619-1.413-3.986Zm-46.925-30.597c.481 1.292.504 2.235 1.028 3.214 2.597-1.438 12.323-7.702 12.598-10.413h-.255c-1.634-.697-4.334.043-5.657.514h-3.215c-3.784.842-4.566 2.642-4.499 6.685ZM176.5 51.737c1.723 1.649 1.949 2.952 1.929 6.171.657.288.454.302.771.772 1.096.092 2.144.098 3.087-.129.268-.8 1.511-2.175 1.798-3.085.725-2.284 1.02-8.086-.513-9.385l-.259-.386c-2.582.006-6.01 2.933-6.685 4.886-.041.386-.085.771-.128 1.156ZM164.93 39.01c2.26.126 3.396 1.662 4.5 2.957h2.184l2.957-2.443c1.995-1.151 4.99-1.574 7.072-2.958 1.587-1.054 3.038-.096 4.113-2.056 1.297-3.087-.975-6.062.13-9.899.553-1.926.971-3.204 1.285-5.399.035-.243-.337-4.925.257-4.5l.256-.386c4.223-.121 10.045 6.355 13.5 8.485.221 3.6-1.133 6.711-.516 9.899 4.171 2.01 10.005-.348 14.529-1.156l5.014.256c.786.412 1.601 1.662 2.443 1.672v1.157c-1.932 1.374-3.208 3.442-4.757 5.142-1.382 1.515-5.21 3.376-7.457 4.757-1.662 1.021-4.154 1.702-4.242 4.242l.899.772c3.167 1.46 7.679-.214 9.128 3.086.29.657.87 1.296.128 2.056-1.914 3.04-7.087.699-9.898 2.572-2.366 1.574-4.627 3.661-6.556 5.27-1.767 1.472-4.046.538-5.271 2.571-1.41 2.338-.131 6.714-.644 9.386l-.643 1.799c-3.704.573-2.833 8.192-5.528 10.671-.833-4.761-3.648-8.902-4.5-12.985-.373-1.794.68-4.108-.771-5.271-.8-.392-2.435-.158-3.342-.257-1.208-2.595-2.009-6.092-4.884-7.071-1.231-.418-1.796.49-3.728.514-.351-.791-.746-2.492-1.415-3.471-.809-1.18-2.713-1.613-3.601-2.7v-.386c-.765-1.762-.015-3.116-.385-4.369-.201-.686-1.249-1.321-1.414-2.315 1.563-1.805 1.187-5.45 1.157-9.642" style="fill:#004098;fill-rule:nonzero"/><path d="M97.138 106.993c-7.998 5.811-18.099 6.641-26.598 3.078-8.499 3.565-18.601 2.735-26.601-3.076-7.999-5.812-11.91-15.162-11.147-24.345-6.017-6.983-8.349-16.847-5.294-26.251 3.056-9.402 10.739-16.011 19.709-18.124 4.781-7.88 13.442-13.146 23.329-13.146s18.547 5.265 23.328 13.143c8.972 2.112 16.657 8.721 19.711 18.125 3.056 9.403.725 19.266-5.29 26.247.763 9.185-3.147 18.537-11.147 24.349ZM70.537 33.25c20.504 0 37.132 16.629 37.132 37.133s-16.628 37.132-37.132 37.132c-20.505 0-37.133-16.628-37.133-37.132 0-20.504 16.628-37.133 37.133-37.133" style="fill:#004098"/><path d="M48.226 67.933h-1.404v-5.294a4.814 4.814 0 0 1-1.814 1.064v-1.274c.365-.12.765-.347 1.195-.681.43-.336.725-.727.883-1.173h1.14v7.358Zm2.698-1.694 1.36-.151c.033.277.121.481.26.615.14.132.325.199.555.199.29 0 .536-.133.739-.399.204-.266.334-.819.391-1.659-.354.41-.795.615-1.325.615-.576 0-1.074-.223-1.492-.668-.418-.444-.628-1.023-.628-1.736 0-.744.222-1.343.664-1.798.44-.454 1.003-.682 1.685-.682.744 0 1.353.288 1.831.863.475.575.715 1.519.715 2.835 0 1.341-.249 2.306-.746 2.9-.497.592-1.143.889-1.94.889-.573 0-1.035-.152-1.388-.457-.354-.305-.58-.761-.681-1.366Zm3.18-3.07c0-.454-.104-.805-.313-1.054-.208-.251-.45-.375-.722-.375a.81.81 0 0 0-.648.307c-.171.204-.257.541-.257 1.008 0 .473.094.821.28 1.041a.88.88 0 0 0 .699.333.87.87 0 0 0 .683-.32c.185-.213.278-.527.278-.94Zm3.074 2.878 1.398-.143c.039.315.159.566.355.75a.96.96 0 0 0 1.424-.078c.204-.238.305-.599.305-1.077 0-.449-.1-.787-.302-1.013a1.012 1.012 0 0 0-.787-.337c-.403 0-.764.178-1.085.535l-1.14-.165.721-3.813h3.713v1.313h-2.649l-.221 1.246c.314-.157.633-.235.962-.235.622 0 1.15.226 1.582.678.433.454.65 1.043.65 1.766 0 .603-.174 1.142-.523 1.614-.478.647-1.139.969-1.985.969-.677 0-1.228-.18-1.655-.544-.426-.364-.682-.852-.763-1.466Zm7.445-2.067c-.364-.153-.628-.365-.792-.633a1.652 1.652 0 0 1-.247-.882c0-.546.189-.998.572-1.355.382-.356.924-.535 1.627-.535.696 0 1.237.179 1.621.535.385.357.579.809.579 1.355 0 .34-.09.641-.267.907a1.677 1.677 0 0 1-.744.608c.406.162.715.401.926.715.212.312.318.673.318 1.083 0 .678-.215 1.226-.647 1.649-.431.423-1.004.635-1.721.635-.667 0-1.222-.174-1.665-.523-.524-.415-.785-.981-.785-1.701 0-.396.099-.76.295-1.092.197-.331.507-.587.93-.766Zm.289-1.415c0 .281.08.499.238.654.158.157.369.235.633.235.266 0 .479-.078.64-.236.158-.16.239-.378.239-.658 0-.265-.079-.474-.238-.633-.158-.158-.366-.237-.627-.237-.27 0-.484.08-.645.239-.158.16-.24.372-.24.636Zm-.129 3.138c0 .387.099.688.297.906a.966.966 0 0 0 .743.324c.289 0 .53-.104.72-.313.188-.208.284-.508.284-.902 0-.342-.097-.619-.29-.827a.958.958 0 0 0-.735-.313c-.343 0-.599.12-.766.355a1.298 1.298 0 0 0-.253.77" style="fill:#004098;fill-rule:nonzero"/><path d="M70.537 5.402c35.881 0 64.98 29.1 64.98 64.981 0 35.882-29.099 64.981-64.98 64.981-35.883 0-64.981-29.099-64.981-64.981 0-35.881 29.098-64.981 64.981-64.981Zm0 2.32c34.6 0 62.66 28.061 62.66 62.661s-28.06 62.66-62.66 62.66c-34.6 0-62.661-28.06-62.661-62.66 0-34.6 28.061-62.661 62.661-62.661" style="fill:#004098"/><path d="M116.844 91.175a.36.36 0 0 1 .17.195.288.288 0 0 1 0 .25c-.074.146-.178.223-.316.232l-.401.027a.362.362 0 0 0-.225.198c-.145.285-.02.529.375.73l.954.486.463-.908.24.122-.463.908 2.537 1.293c.32.163.6.009.84-.461l.105.053-.999 1.96-.104-.054c.209-.41.154-.697-.167-.86l-2.537-1.293-.313.616-.241-.122.314-.617-.233-.118c-.48-.245-.794-.563-.942-.952-.137-.374-.107-.755.092-1.146.117-.229.268-.395.452-.497.161-.081.294-.096.399-.042Zm-96.5-14.818c-.038-.527-.233-.778-.586-.753l-3.009.21c-.717.05-1.263-.157-1.639-.62-.29-.363-.455-.836-.496-1.419-.042-.609.066-1.101.327-1.475.318-.449.847-.7 1.587-.752l2.932-.205c.353-.025.512-.284.478-.776l.159-.012.164 2.337-.159.011c-.035-.493-.221-.728-.557-.704l-3.042.212c-.498.035-.867.157-1.106.364-.297.252-.427.653-.389 1.201.074 1.053.652 1.542 1.733 1.467l2.966-.208c.37-.025.536-.302.5-.828l.159-.011.136 1.949-.158.012Zm-4.664 5.005-.309-1.751.117-.021c.061.349.269.492.622.429l2.091-.368c.205-.037.349-.123.433-.26a.66.66 0 0 0 .08-.473c-.054-.303-.268-.58-.643-.827l-2.231.394c-.354.062-.5.268-.439.616l-.116.021-.309-1.752.117-.02c.061.349.269.492.623.43l2.248-.397c.177-.031.283-.087.32-.168.038-.081.033-.222-.014-.425l.116-.02.607 1.159-.68.119c.52.302.822.691.906 1.167.113.636-.252 1.027-1.093 1.176l-1.891.334c-.354.062-.501.268-.439.616l-.116.021Zm5.721.886a.392.392 0 0 1-.323-.061.438.438 0 0 1-.18-.28.408.408 0 0 1 .053-.321.412.412 0 0 1 .272-.178.435.435 0 0 1 .329.051.392.392 0 0 1 .187.27.42.42 0 0 1-.059.33.419.419 0 0 1-.279.189Zm-5.058 1.73-.415-1.953.115-.024c.09.417.309.589.661.514l2.208-.47c.286-.06.407-.195.363-.404a1.023 1.023 0 0 0-.133-.299l.124-.026.726 1.232-3.139.667c-.352.075-.483.321-.395.738l-.115.025Zm4.757 3.424c-.048-.172-.26-.284-.64-.334l-3.248-.403c-.12-.014-.188-.039-.203-.076-.016-.037.029-.098.134-.185l2.599-2.048c.297-.236.417-.463.358-.68l.115-.03.427 1.594-.114.031c-.066-.244-.174-.346-.327-.305a.77.77 0 0 0-.271.137l-1.823 1.384 2.114.209c.178.016.32.013.424-.01.165-.037.215-.175.151-.414l.114-.031.303 1.131-.113.03Zm-.694 4.429c-.4.04-.79-.047-1.169-.259-.379-.213-.637-.494-.771-.845a1.46 1.46 0 0 1 .062-1.225c.214-.443.608-.775 1.179-.994.535-.205 1.036-.226 1.501-.061.467.163.789.479.968.946.164.424.155.815-.022 1.173-.18.357-.471.612-.874.768l-.936-2.438c-.493.189-.857.469-1.091.838-.234.37-.283.731-.149 1.081.097.251.283.46.556.626.245.153.496.234.752.243l-.006.147Zm.817-1.395c.582-.285.789-.653.615-1.103-.196-.508-.609-.685-1.242-.533l.627 1.636Zm2.525 3.532c-.246.11-.415.062-.506-.143a.436.436 0 0 1 .004-.352c.051-.128.061-.224.031-.292-.038-.086-.154-.158-.348-.213a.746.746 0 0 0-.514.017l-1.806.804c-.33.148-.408.415-.235.806l-.107.047-.809-1.816.108-.049c.172.386.422.505.75.357l1.976-.878c.3-.134.413-.304.346-.513a.822.822 0 0 0-.186-.25l.115-.052.972 1.043-.7.312c.604.1.972.299 1.105.597.05.112.057.224.02.336a.383.383 0 0 1-.216.239Zm-.625 3.849c-.304.169-.607.19-.909.061a1.37 1.37 0 0 1-.653-.62 1.8 1.8 0 0 1-.157-.476 1.736 1.736 0 0 0-.142-.446c-.061-.109-.125-.144-.194-.105l-.056-.104 1.142-.633.069.126c-.612.518-.783 1.018-.517 1.5a.796.796 0 0 0 .358.351c.167.08.334.074.501-.019.235-.129.358-.442.366-.934l.014-.673c.012-.533.198-.899.557-1.098a.974.974 0 0 1 .779-.071c.285.084.508.275.675.574a1.4 1.4 0 0 1 .16.481c.025.172.053.285.083.339.032.059.085.081.161.064l.052.097-1.001.555-.065-.118c.516-.48.667-.916.448-1.308a.703.703 0 0 0-.349-.319.48.48 0 0 0-.439.024c-.212.117-.326.421-.343.912l-.024.687c-.02.589-.191.973-.516 1.153Zm4.857-.377a.396.396 0 0 1-.324.053.433.433 0 0 1-.264-.202.405.405 0 0 1 .133-.581.447.447 0 0 1 .327-.065.397.397 0 0 1 .267.191.427.427 0 0 1-.139.604Zm-4.162 3.355-1.057-1.693.1-.063c.226.362.492.448.796.258l1.915-1.197c.248-.154.315-.323.202-.504a1.054 1.054 0 0 0-.227-.235l.107-.067 1.105.909-2.722 1.7c-.305.191-.344.467-.118.83l-.101.062Zm2.162 2.105a2.658 2.658 0 0 1-.679-.132 1.082 1.082 0 0 1-.493-.395c-.248-.354-.125-.704.366-1.048l2.202-1.542-.256-.366c-.013-.018-.005-.041.025-.068.031-.022.057-.029.076-.022.283.13.791.209 1.524.237l.18.008-.917.643.478.684-.221.154-.479-.683-2.008 1.406c-.381.267-.502.502-.36.704.094.134.285.226.575.277l-.013.143Zm5.117 1.588c-.052-.067-.16-.096-.327-.089a1.491 1.491 0 0 0-.372.057l-3.742 1.15c-.885.271-1.49.198-1.815-.218-.252-.323-.24-.593.039-.811.08-.063.175-.073.286-.031a.528.528 0 0 1 .231.172c.038.048.084.162.138.341a.62.62 0 0 0 .111.224c.165.212.663.151 1.492-.183l1.48-2.909c.105-.203.161-.337.17-.399.015-.098-.012-.22-.082-.364l.092-.073 1.069 1.367-.093.073c-.204-.261-.366-.345-.486-.252a.726.726 0 0 0-.171.218l-1.116 2.138 2.131-.716c.192-.065.308-.112.347-.143.04-.031.057-.088.048-.171a.553.553 0 0 0-.131-.277l.094-.073.7.896-.093.073Zm2.773 5.278c-.423.397-.895.603-1.419.621a1.75 1.75 0 0 1-1.35-.543 1.675 1.675 0 0 1-.499-1.295c.019-.51.22-.961.602-1.357.394-.408.83-.631 1.311-.667.507-.041.969.14 1.386.542.412.398.614.848.61 1.35-.005.503-.22.953-.641 1.349Zm-.792-.296c.39-.403.648-.796.772-1.174.155-.468.077-.852-.235-1.153-.218-.21-.479-.275-.784-.194-.281.072-.558.252-.835.539-.375.387-.63.785-.766 1.193-.159.471-.098.842.18 1.11.246.239.546.301.897.188.272-.089.53-.259.771-.509Zm5.857.274a.36.36 0 0 1-.23.117.286.286 0 0 1-.243-.06c-.123-.108-.172-.228-.148-.363l.07-.396a.354.354 0 0 0-.137-.266c-.242-.21-.508-.147-.799.188l-.702.807.769.669-.177.203-.768-.668-1.869 2.149c-.236.271-.154.579.244.926l-.077.089-1.659-1.442.078-.089c.346.301.638.317.874.046l1.868-2.149-.522-.453.177-.204.521.454.172-.198c.353-.407.738-.634 1.152-.683.395-.044.758.078 1.089.365.195.169.32.357.373.56.04.177.022.308-.056.398Zm2.194 6.159c-.31.427-.702.651-1.177.674-.419.023-.83-.113-1.234-.407a2.426 2.426 0 0 1-.519-.548c-.177-.244-.3-.39-.368-.439-.113-.082-.235-.057-.368.076l-.15-.109.861-1.613.15.109c-.298 1.011-.121 1.755.534 2.231.2.145.424.214.672.207a.84.84 0 0 0 .684-.368c.277-.381.28-.879.011-1.492l-.377-.856c-.315-.714-.308-1.296.018-1.746.257-.355.577-.557.96-.611.38-.052.751.052 1.111.313.204.149.374.33.51.543.137.213.241.347.314.4.1.072.227.051.382-.067l.143.104-.905 1.561-.164-.119c.314-.966.171-1.667-.429-2.103a.874.874 0 0 0-.61-.178c-.216.02-.398.133-.547.337-.129.177-.169.405-.122.683.035.164.125.426.271.79l.364.889c.3.732.296 1.312-.015 1.739Zm3.571 2.399c-.4.255-.736.415-1.007.48-.38.098-.741.048-1.082-.149a1.445 1.445 0 0 1-.717-.998c-.103-.474-.007-.964.285-1.469.291-.506.681-.839 1.169-.997.488-.161.982-.095 1.483.194.292.167.502.385.628.654.128.268.138.495.032.68a.357.357 0 0 1-.226.171.37.37 0 0 1-.289-.04.355.355 0 0 1-.178-.238.38.38 0 0 1 .036-.273.556.556 0 0 0 .062-.445.586.586 0 0 0-.289-.357c-.355-.205-.712-.201-1.07.015-.262.16-.477.389-.649.686a1.86 1.86 0 0 0-.255 1.185c.051.405.232.698.543.877.399.23.884.2 1.455-.093l.069.117Zm3.877-2.597a.392.392 0 0 1-.253.209.437.437 0 0 1-.331-.043.41.41 0 0 1-.211-.246.4.4 0 0 1 .038-.323.435.435 0 0 1 .249-.22.4.4 0 0 1 .328.031c.109.058.18.144.215.258a.413.413 0 0 1-.035.334Zm-1.925 4.987-1.763-.937.055-.105c.377.202.65.142.819-.175l1.059-1.993c.137-.258.111-.438-.077-.537a.974.974 0 0 0-.314-.092l.06-.111 1.41.235-1.505 2.834c-.169.318-.066.577.311.777l-.055.104Zm4.28.33c-.244.32-.573.546-.987.679-.414.132-.796.128-1.144-.012a1.46 1.46 0 0 1-.853-.882c-.178-.458-.152-.973.077-1.54.215-.531.541-.911.979-1.14.438-.229.889-.25 1.351-.062.423.17.703.442.843.816.139.375.128.762-.035 1.163l-2.421-.978c-.197.49-.242.946-.13 1.37.11.423.34.704.689.845.25.102.529.108.837.021.279-.075.508-.204.691-.385l.103.105Zm-.464-1.549c.19-.62.061-1.021-.388-1.201-.503-.204-.915-.023-1.237.544l1.625.657Zm4.496 4.403-1.681-.579.04-.111c.334.115.559.003.676-.338l.692-2.007c.067-.196.061-.364-.018-.504a.662.662 0 0 0-.374-.299c-.292-.1-.637-.046-1.035.162l-.738 2.142c-.117.339-.008.567.326.682l-.038.111-1.681-.578.039-.112c.335.115.56.003.677-.337l.743-2.158c.059-.17.062-.291.009-.362-.052-.072-.179-.136-.379-.193l.038-.112 1.308.032-.224.652c.516-.309 1.002-.385 1.459-.227.61.21.776.719.499 1.526l-.626 1.816c-.116.34-.007.568.327.683l-.039.111Zm4.14-.346c-.308.361-.581.612-.822.753a1.39 1.39 0 0 1-1.078.174 1.447 1.447 0 0 1-.978-.745c-.237-.422-.289-.919-.158-1.487.132-.57.408-1.003.827-1.298.42-.294.912-.377 1.475-.246.329.075.593.223.793.442.2.219.276.432.228.641a.357.357 0 0 1-.166.229.364.364 0 0 1-.287.046.35.35 0 0 1-.24-.176.375.375 0 0 1-.046-.27.555.555 0 0 0-.07-.444.584.584 0 0 0-.382-.257c-.399-.092-.738.017-1.017.327-.203.23-.343.511-.421.845-.1.432-.065.835.103 1.208.167.373.425.6.775.681.45.103.904-.069 1.365-.515l.099.092Zm4.142.729a1.95 1.95 0 0 1-.84.854c-.38.209-.756.278-1.125.206a1.462 1.462 0 0 1-1.005-.701c-.262-.418-.335-.927-.218-1.528.11-.561.357-.997.743-1.306a1.545 1.545 0 0 1 1.316-.319c.445.087.773.3.981.642.209.341.272.723.188 1.147l-2.562-.498c-.101.518-.057.974.133 1.37.189.394.468.626.838.699.265.052.54.004.825-.14.259-.128.461-.297.605-.51l.121.084Zm-.751-1.433c.068-.645-.135-1.013-.609-1.105-.533-.103-.903.153-1.111.77l1.72.335Zm6.542 2.88-.361.256a.663.663 0 0 1-.408.117c-.34-.03-.518-.26-.531-.69-.2.152-.422.283-.668.39-.247.109-.439.156-.58.145a.913.913 0 0 1-.615-.304.778.778 0 0 1-.218-.615c.044-.492.354-.854.932-1.085a9.28 9.28 0 0 1 1.279-.405l.027-.31c.053-.61-.105-.932-.473-.964-.42-.036-.64.063-.661.298a.964.964 0 0 0 0 .152c.003.052.003.113-.004.186a.418.418 0 0 1-.133.272.354.354 0 0 1-.28.098.383.383 0 0 1-.26-.116.295.295 0 0 1-.081-.235c.026-.302.201-.533.525-.691.277-.133.579-.185.91-.156.448.039.759.156.933.351.19.214.264.563.223 1.044l-.162 1.846c-.019.218.038.332.173.345.1.008.239-.038.418-.141l.015.212Zm-1.317-.513.129-1.468c-.45.113-.761.216-.932.307-.301.166-.466.394-.491.685-.041.464.143.714.551.75.213.018.46-.072.743-.274Zm5.848.732-1.777.063-.003-.118c.354-.012.524-.198.511-.557l-.074-2.122c-.007-.208-.073-.363-.198-.465a.653.653 0 0 0-.456-.144c-.309.01-.611.184-.909.52l.079 2.265c.014.359.197.532.55.52l.004.118-1.776.062-.005-.118c.354-.012.525-.198.512-.558l-.079-2.281c-.007-.179-.047-.293-.122-.341-.074-.048-.216-.063-.423-.044l-.005-.119 1.233-.438.024.69c.371-.474.798-.719 1.281-.736.645-.022.983.392 1.013 1.246l.066 1.92c.013.359.197.532.55.52l.004.117Zm4.594-.678a8.943 8.943 0 0 0-1.234.59l-.052-.604a1.37 1.37 0 0 1-1.122.708c-.342.029-.664-.082-.968-.332-.377-.318-.593-.793-.649-1.421a2.18 2.18 0 0 1 .394-1.495c.311-.441.716-.683 1.213-.727.374-.032.665.061.87.279l-.118-1.35c-.016-.191-.069-.299-.155-.326-.029-.008-.169-.001-.421.021l-.015-.168c.252-.078.661-.239 1.227-.479l.426 4.868c.014.172.065.275.153.307.053.023.2.025.44.004l.011.125Zm-1.318-.369-.157-1.797c-.025-.287-.124-.506-.299-.662a.78.78 0 0 0-.613-.201c-.353.03-.613.22-.779.57-.144.295-.197.654-.16 1.077.043.492.174.893.392 1.196.226.327.504.475.834.446.218-.019.384-.073.497-.162.114-.09.209-.245.285-.467Zm7.408-4.815-.197.046c-.2-.386-.332-.613-.399-.677-.191-.181-.473-.228-.845-.143l-.756.175 1.012 4.383c.085.366.395.488.931.364l.037.156-2.447.565-.035-.157c.536-.123.762-.369.676-.735l-1.011-4.383-.658.152c-.425.098-.688.269-.788.51-.044.109-.064.372-.06.792l-.196.046-.273-1.407 4.637-1.071.372 1.384Zm4.453 1.574a1.94 1.94 0 0 1-.3 1.158c-.225.373-.516.62-.872.743a1.457 1.457 0 0 1-1.22-.106c-.436-.231-.754-.635-.953-1.213-.186-.542-.189-1.043-.009-1.503a1.54 1.54 0 0 1 .978-.933c.431-.149.821-.128 1.172.064.351.191.597.491.737.9l-2.468.849c.171.5.438.873.799 1.12.361.247.72.308 1.076.186.255-.088.469-.265.645-.533.16-.24.25-.488.269-.744l.146.012Zm-1.366-.865c-.263-.593-.623-.81-1.08-.653-.514.177-.706.585-.577 1.223l1.657-.57Zm5.114-.528c-.046.472-.125.835-.241 1.088-.158.36-.419.614-.783.761-.411.166-.821.15-1.228-.049-.437-.211-.765-.588-.983-1.129-.219-.542-.241-1.053-.067-1.536.176-.483.53-.832 1.066-1.048.313-.127.614-.158.903-.094.291.066.475.197.555.395a.357.357 0 0 1-.003.283.365.365 0 0 1-.209.202.342.342 0 0 1-.298-.007.376.376 0 0 1-.193-.194.555.555 0 0 0-.312-.323.584.584 0 0 0-.46.008c-.38.154-.596.438-.647.852-.033.304.013.615.141.933.167.412.426.721.777.931.351.209.692.247 1.026.111.427-.17.701-.573.822-1.203l.134.019Zm4.803-.914-1.57.834-.055-.104c.313-.167.385-.408.216-.725l-.926-1.741c-.246-.461-.554-.592-.926-.395-.292.156-.487.447-.585.874l1.06 1.994c.169.317.41.392.722.227l.056.104-1.57.834-.055-.104c.312-.166.384-.408.215-.726l-1.953-3.674c-.093-.174-.18-.261-.263-.261-.054-.003-.184.05-.392.16l-.071-.133c.179-.166.488-.47.927-.912l1.202 2.261c.124-.581.376-.973.758-1.177.62-.328 1.13-.117 1.531.636l.902 1.697c.168.317.409.393.721.227l.056.104Zm4.058-2.316-1.539.889-.06-.103c.307-.177.37-.421.19-.733l-1.061-1.838c-.104-.179-.234-.286-.393-.318a.654.654 0 0 0-.47.087c-.267.154-.453.45-.558.886l1.133 1.962c.179.312.422.38.729.202l.06.103-1.54.888-.059-.103c.306-.176.37-.419.189-.731l-1.14-1.977c-.091-.156-.18-.238-.268-.245-.089-.007-.22.046-.395.16l-.059-.102.882-.966.346.598c.104-.593.367-1.01.785-1.251.56-.323 1.052-.115 1.479.624l.96 1.664c.18.311.423.378.73.201l.059.103Zm2.472-4.156c.317.485.438.987.365 1.506-.074.518-.33.93-.769 1.234-.41.286-.865.374-1.362.268-.498-.107-.909-.384-1.233-.829-.333-.458-.476-.928-.428-1.407.048-.507.306-.931.774-1.27.464-.337.942-.459 1.437-.366.493.091.899.381 1.216.864Zm-.429.729c-.331-.455-.671-.776-1.023-.965-.433-.233-.825-.223-1.175.031-.246.179-.355.424-.329.739.024.289.152.594.387.917.316.436.664.757 1.041.961.436.238.812.243 1.125.015.278-.201.391-.484.34-.85a1.88 1.88 0 0 0-.366-.848Zm3.687-1.074-1.514 1.315-.076-.088c.327-.284.371-.561.136-.833l-2.758-3.172c-.1-.115-.187-.176-.262-.186-.075-.009-.165.032-.272.125a3.004 3.004 0 0 0-.204.2l-.085-.095c.165-.232.423-.627.777-1.188l3.344 3.846c.235.272.515.267.837-.013l.077.089Zm2.064-4.372c.382.436.572.916.571 1.44a1.751 1.751 0 0 1-.589 1.33c-.367.339-.805.49-1.313.454-.507-.038-.953-.254-1.335-.65-.394-.408-.601-.852-.62-1.333-.023-.509.174-.964.59-1.366.412-.398.869-.585 1.372-.563.501.023.943.252 1.324.688Zm-.323.781c-.39-.405-.773-.675-1.147-.812-.462-.172-.849-.107-1.159.193-.219.211-.292.47-.223.777.062.283.233.568.51.855.375.388.763.656 1.165.807.465.174.838.127 1.117-.142.247-.238.319-.534.218-.89a1.869 1.869 0 0 0-.481-.788Zm2.217-4.992-.449.534c.21.038.421.145.632.323.3.252.461.553.482.905.02.35-.1.683-.364.998-.101.12-.212.225-.331.315-.053.351-.018.58.108.684.133.112.423-.099.871-.632.434-.516.782-.821 1.044-.917.248-.085.511-.01.791.225.288.241.387.636.295 1.181-.09.518-.311.986-.662 1.404-.287.344-.608.551-.96.621-.286.062-.5.033-.642-.087-.121-.1-.183-.281-.185-.539-.01-.242-.017-.483-.021-.722a.777.777 0 0 1-.333.128c-.12.016-.21-.001-.271-.051-.133-.112-.212-.292-.238-.542a4.502 4.502 0 0 1 .016-.635c-.512.26-.973.217-1.387-.129a1.27 1.27 0 0 1-.467-.931c-.023-.379.113-.745.41-1.098.126-.15.321-.3.585-.449.264-.148.434-.271.509-.369l.315-.429.252.212Zm-.015 1.537a1.88 1.88 0 0 0-.826-.418c-.333-.067-.584.001-.753.203-.142.168-.187.345-.137.529.05.185.175.354.37.504.278.218.551.355.82.412.32.064.569-.01.745-.221.272-.322.198-.659-.219-1.009Zm2.756 1.158c-.168-.141-.382-.104-.642.11-.131.103-.347.336-.651.696-.235.281-.463.51-.687.689.043.395.139.656.289.781.31.261.731.075 1.261-.558.325-.387.518-.749.581-1.085.055-.292.004-.503-.151-.633Zm-.175-6.521c-.052.066-.054.177-.007.337.036.128.085.243.146.348l2.02 3.353c.477.793.553 1.398.228 1.813-.252.324-.518.377-.797.158-.079-.061-.112-.152-.099-.269a.52.52 0 0 1 .112-.266c.037-.049.137-.121.297-.216a.664.664 0 0 0 .19-.162c.166-.212-.013-.681-.538-1.404l-3.181-.732c-.223-.053-.365-.075-.428-.067-.099.008-.21.064-.333.167l-.094-.073 1.068-1.367.094.073c-.204.261-.247.437-.128.531a.705.705 0 0 0 .254.113l2.345.566-1.211-1.893c-.11-.171-.184-.273-.223-.303-.04-.031-.1-.033-.178-.006a.565.565 0 0 0-.238.194l-.092-.072.7-.896.093.073Zm4.464-4.025c.492.305.815.708.966 1.21.152.502.095.983-.174 1.444a1.671 1.671 0 0 1-1.122.817c-.497.115-.986.037-1.467-.229-.496-.275-.824-.641-.983-1.094-.171-.48-.115-.973.164-1.479.278-.501.66-.813 1.147-.939.487-.125.977-.035 1.469.27Zm-.081.842c-.492-.273-.936-.42-1.335-.441-.492-.029-.843.145-1.052.523-.147.266-.142.535.015.808.142.252.388.475.737.669.471.261.921.405 1.351.43.496.032.838-.122 1.025-.461.167-.299.149-.604-.05-.914a1.895 1.895 0 0 0-.691-.614Zm5.371-10.234c.426.832.48 1.664.159 2.498-.31.808-.823 1.353-1.54 1.638-.686.266-1.414.251-2.184-.045-.756-.29-1.301-.785-1.636-1.485-.336-.701-.359-1.428-.07-2.183a3.55 3.55 0 0 1 .51-.892c.22-.285.338-.446.353-.483.059-.14 0-.275-.177-.41l.067-.174 1.805.612-.077.197c-.477-.075-.906-.008-1.289.199-.384.208-.659.531-.829.973-.226.586-.171 1.134.163 1.641.318.471.829.842 1.532 1.112.687.264 1.315.312 1.884.145.569-.166.962-.533 1.18-1.099a2.68 2.68 0 0 0 .167-1.397c-.026-.185-.105-.441-.239-.769l.221-.078Zm2.004-4.283-.46 1.718-.115-.031c.092-.342-.036-.56-.383-.653l-1.904-.509c-.505-.135-.812 0-.92.407-.086.32-.006.661.239 1.023l2.182.586c.348.092.565-.032.657-.374l.115.03-.46 1.718-.115-.032c.092-.341-.036-.558-.383-.652l-4.019-1.077c-.19-.051-.313-.046-.37.014-.039.037-.089.169-.15.397l-.147-.04a31.97 31.97 0 0 0-.035-1.3l2.474.663c-.341-.487-.455-.939-.343-1.357.182-.678.684-.906 1.509-.685l1.855.497c.347.093.567-.032.659-.374l.114.031Zm-4.849-3a.397.397 0 0 1 .278.178.438.438 0 0 1 .06.327.41.41 0 0 1-.168.278.407.407 0 0 1-.319.063.429.429 0 0 1-.286-.171.393.393 0 0 1-.072-.32.422.422 0 0 1 .179-.285.425.425 0 0 1 .328-.07Zm5.339.291-.347 1.967-.117-.021c.074-.421-.065-.662-.419-.724l-2.224-.393c-.288-.05-.45.03-.487.24-.014.083-.011.191.011.327l-.124-.022-.213-1.414 3.162.557c.352.062.566-.118.641-.537l.117.02Zm.696-4.645-.216 1.764-.117-.014c.043-.352-.114-.549-.471-.594l-2.106-.257c-.206-.026-.37.015-.491.121a.653.653 0 0 0-.213.429c-.039.306.085.633.37.979l2.25.276c.357.044.556-.11.601-.461l.116.014-.216 1.765-.118-.015c.042-.351-.113-.549-.47-.592l-2.266-.278c-.179-.022-.298 0-.357.065-.058.068-.094.204-.109.412l-.118-.015-.24-1.285.686.084c-.41-.441-.586-.901-.527-1.38.078-.641.542-.909 1.389-.806l1.907.234c.355.044.557-.11.599-.46l.117.014Zm-.202-4.197.28.342c.1.137.148.269.146.399-.008.342-.224.535-.652.578.166.188.311.402.436.639.126.238.187.428.185.568a.92.92 0 0 1-.26.636.783.783 0 0 1-.6.26c-.493-.01-.876-.294-1.146-.855a9.282 9.282 0 0 1-.493-1.247l-.311-.005c-.612-.01-.922.169-.928.54-.009.42.106.633.342.637a.863.863 0 0 0 .152-.01c.051-.007.113-.01.187-.009.106.002.2.041.278.114a.34.34 0 0 1 .118.273.383.383 0 0 1-.097.267.297.297 0 0 1-.229.097c-.303-.006-.545-.164-.725-.476a1.72 1.72 0 0 1-.221-.897c.009-.45.104-.768.286-.955.202-.205.544-.302 1.025-.294l1.854.032c.218.004.329-.062.331-.197.003-.101-.054-.236-.169-.407l.211-.03Zm-.419 1.35-1.474-.027c.144.441.267.744.372.908.185.29.424.438.716.442.466.009.702-.192.71-.602.005-.213-.105-.454-.324-.721" style="fill:#004098;fill-rule:nonzero"/><path d="M91.707 84.108c9-20.688.919-33.744-16.617-40.671 10.511 4.251 8.286 17.274 4.097 23.868-4.188 6.595-11.322 11.937-22.575 17.003 12.053-4.711 19.581-10.927 23.091-16.744 3.509-5.816 4.15-10.87 3.198-16.544 5.448 11.63.854 21.866-9.837 32.03 12.394-10.67 16.415-22.163 9.405-34.055 10.423 11.434 7.607 23.667.425 34.566 8.837-12.243 10.363-25.195-1.359-36.325 14.094 8.625 16.094 20.414 10.172 36.872M71.966 44.498c-2.499-2.587-4.588-4.162-7.83-5.806 4.617.06 10.147 1.157 13.719 2.157-3.742-.434-5.42-.054-6.258.522-.838.578-.526 1.52.369 3.127" style="fill:#004098"/><path d="M72.411 91.27c.072-1.709.241-2.837 2.682-3.423 2.441-.586 5.129-.514 9.616.21 4.486.723 8.085 1.042 12.516.621-1.503-.977-1.956-1.445-2.552-2.57-3.874.081-6.441-.188-9.669-1.176-3.229-.986-7.034-2.004-9.508-1.745-2.475.26-4.097 1.638-4.959 4.659-.864-3.021-2.485-4.399-4.96-4.659-2.475-.259-6.278.759-9.508 1.745-3.228.988-5.795 1.257-9.669 1.176-.595 1.125-1.05 1.593-2.553 2.57 4.432.421 8.031.102 12.517-.621 4.486-.724 7.174-.796 9.616-.21 2.441.586 2.61 1.714 2.682 3.423h3.749" style="fill:#004098"/><path d="M70.537 35.572c19.221 0 34.81 15.588 34.81 34.811 0 19.222-15.589 34.81-34.81 34.81-19.223 0-34.811-15.588-34.811-34.81 0-19.223 15.588-34.811 34.811-34.811Zm0 1.16c18.581 0 33.65 15.069 33.65 33.651s-15.069 33.65-33.65 33.65c-18.583 0-33.651-15.068-33.651-33.65s15.068-33.651 33.651-33.651" style="fill:#004098"/><path d="M110.306 37.817c.73 1.067.283 3.327-.738 4.005-.256-.158-1.373-.037-1.503-.645-.112-.726.532-1.074.809-1.753.264-.646.142-1.403.343-1.952l.031.041c.414-.133.683.105 1.058.304Zm5.031-6.588c.216.287.478.587.5.845.051.6-1.482 1.746-2.293 2.344-.269.199-.83.307-.918.618.442.337.895.845 1.43 1.019l.216-.097c.112-.231.094-.458.209-.667l.289-.214.107.144c-.157.645.243 1.339.705 1.941.113.147.063.291.204.489-.072.098-.067.066-.027.18l-.412.306c-.148-.041-.332.028-.474-.032-.229-.224-.46-.449-.691-.672-1.111-.588-2.23-1.49-3.404-1.696-.979.703-3.077 1.265-3.962.958-.698-.242-1.548-1.586-.808-2.122l.021-.014c.216.077.472.074.692.157l.851.713c.418.229 1.808.006 2.273-.216l.078-.154c-.58-1.269-1.564-1.084-1.083-2.621.034-.109.1-.569.413-.563.081.011.125.073.194.175.128.395.32.94.654 1.181l.357.438c.272.185.771.625 1.082.637.41.015 2.639-1.683 2.868-2.13.133-.262.14-.846.585-.979l.344.032M125.775 46.88c.411.771-.292 1.483.211 2.164.136.027.095.12.221.229.452.393 1.675.826 1.682 1.729.003.499-.902 1.337-1.492 1.069-.134-.099-.994-1.122-1.005-1.229-.629-.468-1.345-.78-1.991-1.136l-.033.048c.01.014.018.03.026.045.095.3.527.697.563 1.129.095 1.136.269 2.35-.959 3.016-.145-.09-.368-.125-.52-.233-.321-.228-.861-1.07-1.196-.942-.446.916-1.977.285-2.756.315-.129.149-.217.286-.203.474l.386.667c.256.198 1.41 1.056 1.467 1.616.067.651-.747 1.009-1.288.803-.353-.655-.494-1.313-1.269-1.79-.247-.152-.224-.348-.474-.409-.462.263-.733.541-1.284.861-1.505-.705-2.707-1.797-2.235-3.667.093-.371.201-.836.565-1.127.268.501.084 1.117.132 1.615l.286.548c.589 1.02 1.303 1.213 2.11 1.393l.143-.112c.026-.075.053-.149.078-.224l-.385-.668a6.31 6.31 0 0 0-.751-.634c-.443-.304-1.355-2.111-1.201-2.541.059-.163.227-.261.394-.346l.329.107c.541.367.614 1.365 1.14 1.923.311.33 1.002.627 1.197 1.149.097.035.182.049.281.075.565-.606.925-.508 1.582-.498.13.002.552-.067.567-.149.078-.344-.643-.681-.836-.882l-.257-.445c.948-.652 1.319.28 2.003.95.285.279.723.444 1.038.617.293.16.857.484 1.129.001.119-.21-.013-.408-.028-.666-.079-1.363-1.794-2.269-2.76-2.621-.365-.133-1.096-.532-1.514.103.002.135-.172.574-.172.574-.388.401-.826.325-1.162.404-.121-.148-.184-.131-.308-.327.062-.122.084-.384.084-.524-.188-.084-.304-.175-.407-.447.076-.326 1.492-2.042 1.846-2.045.787.519 1.513.65 2.316.978l.87.685c.638.28 1.366.374 2.035.545.829.211 1.422.948 2.25 1.017.013-.028.028-.055.041-.084l-.013-.022c-.552-.185-1.826-.811-1.655-1.685.091-.475.779-.712.659-1.272.117-.056.233-.114.348-.171.065.03.101.045.175.047Zm.971-2.636.154.266c-.552.612-2.198 2.353-3.259 2.119-.673-.654.234-1.703 1.024-2.134.461.302 1.434-.222 2.081-.251M95.797 24.827c-.305.086-1.384.739-1.381 1.161.007.004.014.009.022.012 1.112.704 1.796-.111 1.493-1.095l-.134-.078Zm5.074-5.498c.108.071.214.144.321.215-.051.516-.441 2.009-.827 2.46-.249.292-1.096.978-1.128 1.338.003.03.004.061.006.092.553.326 1.186.326 1.556-.022.211-.197.044-.404.238-.515.269.217 1.353 1.046 1.375 1.268.014.177-.185.371-.258.446-1.089-.522-1.987-.246-3.021-.113-.333.044-.523-.314-.821-.118-.443.289-1.104 1.577-1.358 1.887l.073.131c.751.299 1.449-.709 2.082.816.19.458-.282.783-.463 1.365-.13.424.159 1.035.057 1.546-.217 1.093-1.806.716-2.269.025-.317-.615.572-1.888.183-2.683l-.225-.071c-1.099.665-1.195 2.257-1.971 3.106l-.058-.004c-.646-.544-.383-1.569-.005-2.407.175-.386.578-.414.603-.838-.257-.25-.823-.483-1.162-.404-.313.073-.5.453-.786.644-.526.35-1.311.759-1.927.817-.233-.152-.402-.4-.517-.595.262-.5.165-.618.088-1.077.393-.391.911-.88 1.129-1.544 1.265-.17 2.463-.939 3.772-.879.47.021.772.868 1.292.538l.141-.245-.059-.36c-.272-.101-.474.037-.723-.033-1.019-.283-.983-1.402-.422-1.994l.022.013c.308.553 1.288 1.027 1.953 1.039a4.49 4.49 0 0 0 .685-.673l.575-.945c.383-.361.683-.641 1.024-.952.135-.122.51-1.021.689-1.293l.136.019Zm1.922.99c.666.513 1.363.871 1.745 1.602.047.09.302.75.255.741-.276 1.169-1.49 1.032-2.058.325.108-.232.147-.437.026-.609l-.242-.198c.335-.663-.276-1.374.274-1.861M62.046 11.964l-.152.142.068.063.144-.061.026-.112-.036-.044-.05.012Zm.048-.355-.058.093.098.188.182-.122-.03-.126-.036-.044-.156.011Zm.713-1.225c.684-.127 1.471.149 1.946.304.01.115.088.28.015.392-.332.855-1.962 1.029-2.422 1.816.39.384.745.106 1.25.258.747.226 2.436 1.9 1.685 2.981-.2.287-.687.485-.937.725-.333.318-1.028-.076-1.16.566l.122.737c-.164.501-.572.814-.646 1.394.168.17.366.144.621.17.194-.17.178-.274.224-.503.567-.148 1.705-.145 2.138-.005.201.065.409.55.503.779-.092.119-.135.35-.312.47-.65.474-1.371-.518-1.958.094-.408.427.52 1.338.363 1.975-.364 1.471-3.072 1.105-3.986.682l.033-.087c.994-.662 2.539-.734 2.74-1.918-.045-.039-.034-.036-.093-.057-.741-.104-1.332.595-2.051.592-.267-.001-.744.082-.985-.03l-.383-.279.04-.168c.586-.125 2.725-.84 2.8-1.114l-.036-.149c-.215-.191-.249-.08-.457-.368.004-.273-.081-.489-.016-.735.107-.414.373-.841.284-1.362-.049-.042-.06-.054-.124-.076-.543-.189-1.209 1.007-1.686 1.245a.733.733 0 0 0-.011-.05c-.181-.208-.117-.533-.084-.799.126-1.021 1.164-1.57 2.12-1.084.565-.12.793-.454 1.093-.735.242-.226.594-.459.719-.752.4-.935-1.027-1.522-1.614-1.572-.966-.082-1.584 1.082-1.882 1.53-.347.521-.684 1.168-1.092 1.632-.329.377-.639.668-.817 1.12-.266.674-.177 1.627-.339 2.352-1.299.339-1.842-.79-1.943-1.837-.005-.051.621-.691.741-.889.225-.459.45-.918.677-1.376.322-.497.875-.98 1.276-1.412.594-.64 1.892-1.408 2.269-2.124a.221.221 0 0 1-.005-.025c-.609-.097-1.452-.179-1.845-.645l.013-.056c1.532-.061 2.472-.947 3.212-1.607Zm-5.871.864c.126.019.153.055.242.128.057.353.831 1.534 1.141 1.578.046.596.284.741-.164 1.201-1.27.1-1.553-.517-1.611-1.888-.016-.378-.203-.547-.134-.788l.526-.231M80.44 15.937c-.675.211-.957.707-1.411 1.216-.61.685-1.986 1.881-1.369 3.232.298.651 1.221 1.441 2.253 1.147.254-.071.3.019.47-.153-.282-.548-.585-1.996-1.028-2.343l.033-.046.862.149c.324.188 1.422.923 1.71.818.194-.702.705-1.648.361-2.233l-.258-.019c-.301.167-.468.676-.766.807-.284.125-.386-.4-.422-.569-.149-.676.039-1.079.041-1.898l-.476-.108Zm3.036-3.073c-.282.44-.764 1.18-.789 1.689l.047.034c.388.064 1.314-.197 1.578-.378.092-.547-.418-1.003-.684-1.319a8.042 8.042 0 0 0-.152-.026Zm-.876-2.317c.807.134 1.226.503 1.145 1.216-.027.234-.269.475-.132.76.302.623 1.335 1.026 2.181 1.264l-.011.364c-.43.584-1.408.693-2.009 1.06-.193.118-.306.407-.528.483-.628.215-1.226-.016-1.42.822.352.502 1.406.481 1.611 1.089.1.293-.005 1.499-.198 1.895-.105.213-.456.787-.375 1.108.153.395.742.482 1.069.76.474.404.827.774.915 1.489.082.662-.817 1.302-1.558 1.008-.449-.179-.655-.748-.955-1.105-.118-.139-.383-.228-.543-.329-.181-.114-.978.107-1.066.129l-.46-.054c-.639.084-1.361.131-2.061-.148-.04-.447-.347-.995-.638-1.285l-.101-.017-.06.041c-.065.403.227 1.922-.14 2.01-.205.051-.517-.274-.589-.362-.265-.324-.202-.858-.334-1.232l-.649-.92c-.084-.247.078-.518-.089-.694-.21-.221-1.706.343-2.328.04-.36-.177-.97-.968-.485-1.414.225-.144.449-.288.675-.431.161-.213-.01-.651.149-.861.289.021.769.26 1.211.235.463-.026 2.353-.393 2.569-.676l.467-1.641c.187-.36.525-.488.615-.988-.067-.054-.072-.076-.105-.148-.656-.115-1.064-.184-1.595-.277-.081-.164-.231-.278-.315-.446.023-.169.014-.202.079-.299.061-.083-.009-.032.089-.063.318-.028.363.264.666.219.408-.06 1.724-.381 1.986-.621.561-.513.523-1.521 1.207-1.851.469.076.72.213 1.067.316.003.066-.042.077.084.118-.258.755-1.031.976-1.438 1.525-.495.666-.612 1.645-.933 2.524-.06.167-.348.63-.322.806.643.173.576-.717 1.061-.86.495-.041 1.112.13 1.392-.202.306-.363.137-.898.363-1.345.256-.507.609-1.105.78-1.639.191-.597-.524-.8.056-1.373M18.994 52.651c.102.639.314.989.611 1.494.443.124.481-.109.739-.174l.702.161c.062 0 .009.032.081-.005.203-.033.318-.33.328-.63-.357-.401-1.101-1.058-1.903-.936-.301.045-.336-.129-.558.09Zm-.244-5.44c.149 1.35-1.051 2.121.847 2.596.271.066.446.037.624-.046l.007-.025c-.521-.942-.552-1.956-1.273-2.896-.083.011-.029-.007-.087.03l-.118.341Zm-5.566 2.899c.153-.522 1.968-2.034 2.38-2.13.656-.002 1.214.708 1.898.562.482-.765.391-1.837.477-2.772.058-.634.451-1.429.927-1.375.641.661.978 1.58 1.231 2.459.135.471.136 1.261.666 1.482l.157-.09c.396-.169.545-1.2.801-1.596.171-.037.468-.215.723-.018.425.399.079.975.023 1.602-.065.724.492 1.364.676 2.044.084.31-.047.52.035.861.17.701 1.547.484 2.092.932.211.175.185.487.35.679.298.347.843.299 1.218.619.142.163.285.326.428.487l-.006.025c-.773-.186-1.711.117-2.38.241-.428.078-1.016-.31-1.461-.205l-.205.663c-.549.094-1.288.059-1.612.553-.181.278.067.503-.156.782-.181.022-.508.018-.687.083-.352.127-.568.516-.958.595-.43.087-.782-.465-1.083-.025l-.15-.04c-.147-.48-1.209-.543-1.795-.746.224-.469.663-.436.855-.809.205-.4-.171-.723-.239-.996-.2-.805-.114-1.761-.382-2.444l-.856-.282-1.056-.231c-.222-.13-.411-.339-.604-.427-.487-.219-.985-.107-1.296-.427l-.011-.056M30.809 34.603a.87.87 0 0 0 .181.435c.219.076.439.192.655.219l.018-.019-.055-.309c-.245-.283-.305-.438-.599-.489l-.2.163Zm-2.199 2.016c-.088.35-.126.511-.037.873a.646.646 0 0 0 .037-.037c.043-.005.085-.012.127-.018.083-.264.073-.476.109-.727l-.109-.108-.127.017Zm.691-1.162c.023.108.048.218.073.327.104.102.12.111.218.109l.017-.091-.017-.2a.616.616 0 0 0-.256-.181l-.035.036Zm-2.599-5.87-1.181 1.508c-.631 1.159-.55 2.496-.254 3.671.062.251.341 1.168.672 1.291l.091.018c.426-.582.099-3.296 1.507-3.217.715-.237 1.115 1.33 1.436 1.69.473-.044 1.265-.069 1.654-.564-.065-.143-.064-.233.091-.381.582-.086 1.073-.471 1.635-.254l.436.436c-.02.458-.13.921-.199 1.436-.153 1.125-.116 2.262-.727 3.416-.203.384-.535.544-.8.799-.443-.169-.723-.208-1.235-.726l.035-.982-.126-.09c-.151-.023-.15.299-.346.381-.451.19-1.027.412-1.417-.145-.056-.08-.225-.164-.218-.291-.088-.484 1.105-2.778.018-2.852l-.036-.038c-.255.491-1.212 1.752-1.109 2.2.016.301.521.512.654.908.303.898 1.542 2.213 2.472 2.944.318.25.243.536.563.636.271-.259.524-.096.8-.218.356-.157 1.186-1.426 1.454-1.853l-.073-.073c-.128.029-.213-.066-.291-.109l-.018-.055c.338-.31.896-.127 1.108-.636.109-.26-.06-.504.055-.781.447-.181 1.24-.149 1.527-.763.638-1.368-1.903-4.182-3.417-5.162-.231-.149-.718-.756-1.054-.909l-.618-.58c-.763-.465-1.47-1.157-2.235-1.364a6.42 6.42 0 0 0-.854.709Zm-.982-.036c.674-.688 1.356-1.351 2.036-1.454 1.618-.246 3.241 1.569 4.761 3.089l1.544 1.545c.844 1.082 2.506 1.897 2.799 3.125.122.511-.314 2.889-1.29 3.108-.469.104-1.586-.196-1.981.49-.113.196-.15.459-.218.691-.047.159-1.198 1.713-1.49 1.854-.354.17-.644.066-.981.109-.125.343.078.6-.255.945l-.018.018c-.332-.077-.737-.151-1.108-.273-.112-.036-.835-.736-.891-.89-.239-.665-.795-1.404-1.236-2.072-.377-.571-.959-.896-1.272-1.091l-.945-.763c-.227-.15-.72-.421-.927-.781-.999-1.741-.614-2.497-.363-4.215.081-.553.48-1.102.618-1.636l.182-.182c.157-.282.409-.74.544-1.054l.491-.563M41.315 26.957c.01.415-.182 1.542-.011 1.853l.043-.027c.057-.039.114-.076.172-.114.016-.57.744-1.136.08-1.746l-.177-.036-.107.07Zm4.118-3.512c-.073.427-.356.806-.385 1.238l.086.13h.092c.357-.245.97-1.12.499-1.344-.144-.069-.112-.115-.292-.024Zm-4.701 1.835-.251.226.078.164c.174-.019.314.002.471-.125l.044-.214-.177-.129a6.14 6.14 0 0 0-.165.078Zm6.533-4.333a.56.56 0 0 0 .041.342l.05.029.179-.241-.049-.121a4.608 4.608 0 0 0-.114-.079l-.107.07Zm-5.299 3.121c-.281.474-.547 1.423.231 1.847l.072-.078c.193-.496.427-1.54.197-2.038a2.124 2.124 0 0 0-.5.269Zm2.36-2.724c-.037.101-.067.134-.051.249l.041.157.207.079.121-.141c-.087-.19-.049-.297-.196-.393a4.43 4.43 0 0 0-.122.049Zm-2.894 1.352c-.103.269-.298.744-.006 1.019.055-.026.109-.051.163-.078.14-.315.217-.54.184-.89-.142-.172-.217-.085-.341-.051Zm1.118-6.152c.717-.468 2.467.535 3.023 1.087.322.318.151.77.522.979.48.268 1.048.265 1.529.501.295.142.506.497.81.574.42.106.929-.171 1.325.05.14.073.196.222.205.358-.443.749-1.76 1.706-1.661 2.571.086.751.734 1.198.95 1.958l.759 1.993c.038.149.065.647.203.729.04.294.027.636.052.919.025.294.341.62.28.801a1.075 1.075 0 0 0-.028-.044c-.798-.093-1.471-.814-2.086-1.58-.504-.626-.845-1.672-1.372-1.989l-.057.006c-.993.714-1.144 1.743-2.466 2.331-.333-.339-1.145-1.127-1.052-1.645.065-.361.38-.677.384-1.053-.043-.156-.084-.314-.126-.471-.015-.272.077-.597.105-.869.025-.245-.376-1.45-.705-1.351-.287.086-.279 1.009-.271 1.224.018.543.211 1.108.233 1.663.043 1.11-.492 1.346.085 2.651.261.594 1.775 1.642 1.721 1.914l-.016.163c-.175.129-.221.168-.372.184-.343-.136-.756-.288-1.073-.555-.284-.241-.428-.549-.73-.689l-.078.021c-.505.941-.296 1.965-1.819 2.705l-.214-.043c-.24-.348-.992-1.102-.982-1.539l.256-1.06c.085-.879.08-1.754.186-2.615l-.092-.093a1.108 1.108 0 0 0-.057.007c-.295.425-1.049 1.458-1.656 1.551-.813-1.209.03-2.414.298-3.427.151-.574.574-2.743.467-3.262-.084-.411-.37-.61-.443-1 .376-.43.818-.415 1.265-.556.385.68.11 1.148.053 1.811-.111 1.338-.641 2.715-.992 4.007-.098.363-.284.692-.312 1.067l.128.101c.165-.14 1.975-1.907 2.007-1.998.291-.837-.986-2.852.659-3.112.269.15 1.041.504 1.337.536l.065-.043c.247-.901-.044-1.003-.769-1.494.05-.456.151-.721.456-1.131.413.25.76.352 1.182.299.374-.776-1.387-2.213-1.116-3.142" style="fill:#004098;fill-rule:nonzero"/></svg>